STARTFONT 2.1
COMMENT
COMMENT Converted from OpenType font "ChivoMono-Regular.ttf" by "otf2bdf 3.0".
COMMENT
FONT -FreeType-chivo mono-Medium-R-Normal--17-120-100-100-P-81-ISO10646-1
SIZE 12 100 100
FONTBOUNDINGBOX 12 23 -1 -5
STARTPROPERTIES 19
FOUNDRY "FreeType"
FAMILY_NAME "chivo mono"
WEIGHT_NAME "Medium"
SLANT "R"
SETWIDTH_NAME "Normal"
ADD_STYLE_NAME ""
PIXEL_SIZE 17
POINT_SIZE 120
RESOLUTION_X 100
RESOLUTION_Y 100
SPACING "P"
AVERAGE_WIDTH 81
CHARSET_REGISTRY "ISO10646"
CHARSET_ENCODING "1"
FONT_ASCENT 15
FONT_DESCENT 4
COPYRIGHT "Copyright 2018 The Chivo Project Authors (https://github.com/Omnibus-Type/Chivo)"
_OTF_FONTFILE "ChivoMono-Regular.ttf"
_OTF_PSNAME "ChivoMono-Regular"
ENDPROPERTIES
CHARS 642
STARTCHAR 000D
ENCODING 13
SWIDTH 600 0
DWIDTH 10 0
BBX 0 0 0 0
BITMAP
ENDCHAR
STARTCHAR 0020
ENCODING 32
SWIDTH 600 0
DWIDTH 10 0
BBX 0 0 0 0
BITMAP
ENDCHAR
STARTCHAR 0021
ENCODING 33
SWIDTH 600 0
DWIDTH 10 0
BBX 2 11 4 0
BITMAP
C0
C0
C0
C0
C0
C0
C0
C0
00
C0
C0
ENDCHAR
STARTCHAR 0022
ENCODING 34
SWIDTH 600 0
DWIDTH 10 0
BBX 4 4 3 7
BITMAP
90
90
90
90
ENDCHAR
STARTCHAR 0023
ENCODING 35
SWIDTH 600 0
DWIDTH 10 0
BBX 10 12 0 0
BITMAP
0880
0980
1900
1100
7FC0
1100
1300
3200
FF80
2200
2600
6400
ENDCHAR
STARTCHAR 0024
ENCODING 36
SWIDTH 600 0
DWIDTH 10 0
BBX 8 14 1 -1
BITMAP
18
10
7E
C3
C3
C0
78
1E
03
81
C3
FF
3C
18
ENDCHAR
STARTCHAR 0025
ENCODING 37
SWIDTH 600 0
DWIDTH 10 0
BBX 10 11 0 0
BITMAP
F0C0
9100
9100
9200
F400
0180
0A40
1240
2240
4240
C380
ENDCHAR
STARTCHAR 0026
ENCODING 38
SWIDTH 600 0
DWIDTH 10 0
BBX 9 12 1 0
BITMAP
1800
7800
C000
C200
C200
7F80
7F80
C200
C200
C200
E200
7E00
ENDCHAR
STARTCHAR 0027
ENCODING 39
SWIDTH 600 0
DWIDTH 10 0
BBX 2 4 4 7
BITMAP
C0
C0
C0
80
ENDCHAR
STARTCHAR 0028
ENCODING 40
SWIDTH 600 0
DWIDTH 10 0
BBX 3 14 4 -3
BITMAP
60
40
C0
80
80
80
80
80
80
80
C0
40
40
20
ENDCHAR
STARTCHAR 0029
ENCODING 41
SWIDTH 600 0
DWIDTH 10 0
BBX 3 14 3 -3
BITMAP
C0
40
60
20
20
20
20
20
20
20
60
40
40
80
ENDCHAR
STARTCHAR 002A
ENCODING 42
SWIDTH 600 0
DWIDTH 10 0
BBX 6 6 2 5
BITMAP
30
B4
FC
30
58
CC
ENDCHAR
STARTCHAR 002B
ENCODING 43
SWIDTH 600 0
DWIDTH 10 0
BBX 8 9 1 0
BITMAP
18
18
18
18
FF
18
18
18
18
ENDCHAR
STARTCHAR 002C
ENCODING 44
SWIDTH 600 0
DWIDTH 10 0
BBX 2 4 4 -2
BITMAP
C0
C0
40
C0
ENDCHAR
STARTCHAR 002D
ENCODING 45
SWIDTH 600 0
DWIDTH 10 0
BBX 4 1 3 4
BITMAP
F0
ENDCHAR
STARTCHAR 002E
ENCODING 46
SWIDTH 600 0
DWIDTH 10 0
BBX 2 2 4 0
BITMAP
C0
C0
ENDCHAR
STARTCHAR 002F
ENCODING 47
SWIDTH 600 0
DWIDTH 10 0
BBX 10 14 0 -3
BITMAP
00C0
0180
0100
0300
0200
0400
0C00
0800
1800
1000
3000
2000
4000
C000
ENDCHAR
STARTCHAR 0030
ENCODING 48
SWIDTH 600 0
DWIDTH 10 0
BBX 8 12 1 0
BITMAP
18
7E
C3
C3
C3
C3
C3
C3
C3
C3
66
3C
ENDCHAR
STARTCHAR 0031
ENCODING 49
SWIDTH 600 0
DWIDTH 10 0
BBX 8 12 1 0
BITMAP
08
F8
F8
18
18
18
18
18
18
18
18
FF
ENDCHAR
STARTCHAR 0032
ENCODING 50
SWIDTH 600 0
DWIDTH 10 0
BBX 8 12 1 0
BITMAP
18
7E
C3
C3
C3
03
06
1C
70
60
C0
FF
ENDCHAR
STARTCHAR 0033
ENCODING 51
SWIDTH 600 0
DWIDTH 10 0
BBX 8 12 1 0
BITMAP
18
7E
C3
C3
03
0E
1E
03
03
83
C7
7E
ENDCHAR
STARTCHAR 0034
ENCODING 52
SWIDTH 600 0
DWIDTH 10 0
BBX 8 12 1 0
BITMAP
18
10
32
36
66
46
C6
86
FF
06
06
06
ENDCHAR
STARTCHAR 0035
ENCODING 53
SWIDTH 600 0
DWIDTH 10 0
BBX 8 11 1 0
BITMAP
7E
40
40
40
7E
C3
03
C3
C3
66
3C
ENDCHAR
STARTCHAR 0036
ENCODING 54
SWIDTH 600 0
DWIDTH 10 0
BBX 8 12 1 0
BITMAP
18
7E
43
C3
C0
FE
E3
C3
C3
C3
67
3E
ENDCHAR
STARTCHAR 0037
ENCODING 55
SWIDTH 600 0
DWIDTH 10 0
BBX 8 11 1 0
BITMAP
FF
02
06
0C
08
18
18
30
30
30
30
ENDCHAR
STARTCHAR 0038
ENCODING 56
SWIDTH 600 0
DWIDTH 10 0
BBX 8 12 1 0
BITMAP
18
7E
43
C3
C3
66
7E
C3
C3
C3
C3
7E
ENDCHAR
STARTCHAR 0039
ENCODING 57
SWIDTH 600 0
DWIDTH 10 0
BBX 8 12 1 0
BITMAP
18
7E
C2
C3
C3
C3
6F
3B
C3
C3
66
7C
ENDCHAR
STARTCHAR 003A
ENCODING 58
SWIDTH 600 0
DWIDTH 10 0
BBX 2 8 4 0
BITMAP
C0
C0
00
00
00
00
C0
C0
ENDCHAR
STARTCHAR 003B
ENCODING 59
SWIDTH 600 0
DWIDTH 10 0
BBX 2 10 4 -2
BITMAP
C0
C0
00
00
00
00
C0
C0
40
C0
ENDCHAR
STARTCHAR 003C
ENCODING 60
SWIDTH 600 0
DWIDTH 10 0
BBX 8 8 1 0
BITMAP
03
1E
70
C0
E0
3C
0F
01
ENDCHAR
STARTCHAR 003D
ENCODING 61
SWIDTH 600 0
DWIDTH 10 0
BBX 8 5 1 2
BITMAP
FF
FF
00
00
FF
ENDCHAR
STARTCHAR 003E
ENCODING 62
SWIDTH 600 0
DWIDTH 10 0
BBX 8 8 1 0
BITMAP
C0
78
0E
03
07
3C
F0
80
ENDCHAR
STARTCHAR 003F
ENCODING 63
SWIDTH 600 0
DWIDTH 10 0
BBX 8 12 1 0
BITMAP
18
7E
42
C3
03
06
0C
18
18
00
18
18
ENDCHAR
STARTCHAR 0040
ENCODING 64
SWIDTH 600 0
DWIDTH 10 0
BBX 10 15 0 -3
BITMAP
0E00
3100
4080
4C40
9E40
B340
8340
9F40
B340
B340
B340
5D80
4000
2100
1E00
ENDCHAR
STARTCHAR 0041
ENCODING 65
SWIDTH 600 0
DWIDTH 10 0
BBX 10 11 0 0
BITMAP
0C00
1E00
1E00
1200
3300
3300
2100
7F80
6180
4080
C0C0
ENDCHAR
STARTCHAR 0042
ENCODING 66
SWIDTH 600 0
DWIDTH 10 0
BBX 8 11 1 0
BITMAP
FE
C3
C3
C3
FE
FE
C3
C1
C3
C7
FE
ENDCHAR
STARTCHAR 0043
ENCODING 67
SWIDTH 600 0
DWIDTH 10 0
BBX 8 12 1 0
BITMAP
18
7E
C3
C3
81
80
80
80
81
C3
E7
7E
ENDCHAR
STARTCHAR 0044
ENCODING 68
SWIDTH 600 0
DWIDTH 10 0
BBX 9 11 1 0
BITMAP
FE00
C300
C180
C180
C180
C180
C180
C180
C300
C700
FE00
ENDCHAR
STARTCHAR 0045
ENCODING 69
SWIDTH 600 0
DWIDTH 10 0
BBX 8 11 1 0
BITMAP
FF
C0
C0
C0
FE
FE
C0
C0
C0
C0
FF
ENDCHAR
STARTCHAR 0046
ENCODING 70
SWIDTH 600 0
DWIDTH 10 0
BBX 8 11 1 0
BITMAP
FF
C0
C0
C0
C0
FE
C0
C0
C0
C0
C0
ENDCHAR
STARTCHAR 0047
ENCODING 71
SWIDTH 600 0
DWIDTH 10 0
BBX 8 12 1 0
BITMAP
18
7E
C3
C3
81
80
8F
81
81
C3
E7
7D
ENDCHAR
STARTCHAR 0048
ENCODING 72
SWIDTH 600 0
DWIDTH 10 0
BBX 8 11 1 0
BITMAP
C3
C3
C3
C3
FF
FF
C3
C3
C3
C3
C3
ENDCHAR
STARTCHAR 0049
ENCODING 73
SWIDTH 600 0
DWIDTH 10 0
BBX 6 11 2 0
BITMAP
FC
30
30
30
30
30
30
30
30
30
FC
ENDCHAR
STARTCHAR 004A
ENCODING 74
SWIDTH 600 0
DWIDTH 10 0
BBX 6 11 2 0
BITMAP
04
04
04
04
04
04
04
04
84
CC
78
ENDCHAR
STARTCHAR 004B
ENCODING 75
SWIDTH 600 0
DWIDTH 10 0
BBX 9 11 1 0
BITMAP
C380
C600
CC00
CC00
D800
F800
EC00
CE00
C600
C300
C380
ENDCHAR
STARTCHAR 004C
ENCODING 76
SWIDTH 600 0
DWIDTH 10 0
BBX 7 11 2 0
BITMAP
80
80
80
80
80
80
80
80
80
80
FE
ENDCHAR
STARTCHAR 004D
ENCODING 77
SWIDTH 600 0
DWIDTH 10 0
BBX 8 11 1 0
BITMAP
E7
E7
A7
A7
A7
A7
BB
9B
9B
9B
9B
ENDCHAR
STARTCHAR 004E
ENCODING 78
SWIDTH 600 0
DWIDTH 10 0
BBX 8 11 1 0
BITMAP
C3
E3
E3
F3
D3
DB
CB
CF
C7
C7
C3
ENDCHAR
STARTCHAR 004F
ENCODING 79
SWIDTH 600 0
DWIDTH 10 0
BBX 8 12 1 0
BITMAP
18
7E
C3
C3
81
81
81
81
81
C3
E7
7E
ENDCHAR
STARTCHAR 0050
ENCODING 80
SWIDTH 600 0
DWIDTH 10 0
BBX 9 11 1 0
BITMAP
FF00
C300
C180
C100
C300
FE00
C000
C000
C000
C000
C000
ENDCHAR
STARTCHAR 0051
ENCODING 81
SWIDTH 600 0
DWIDTH 10 0
BBX 9 14 1 -2
BITMAP
1800
7E00
C300
C300
8100
8100
8100
8100
8100
C300
E700
7E00
1800
0F80
ENDCHAR
STARTCHAR 0052
ENCODING 82
SWIDTH 600 0
DWIDTH 10 0
BBX 9 11 1 0
BITMAP
FF00
C300
C100
C100
C300
FE00
C300
C300
C300
C300
C180
ENDCHAR
STARTCHAR 0053
ENCODING 83
SWIDTH 600 0
DWIDTH 10 0
BBX 8 12 1 0
BITMAP
18
7E
C3
C3
C0
78
1E
03
81
83
C3
7E
ENDCHAR
STARTCHAR 0054
ENCODING 84
SWIDTH 600 0
DWIDTH 10 0
BBX 8 11 1 0
BITMAP
FF
18
18
18
18
18
18
18
18
18
18
ENDCHAR
STARTCHAR 0055
ENCODING 85
SWIDTH 600 0
DWIDTH 10 0
BBX 8 11 1 0
BITMAP
C3
C3
C3
C3
C3
C3
C3
C3
C3
66
7E
ENDCHAR
STARTCHAR 0056
ENCODING 86
SWIDTH 600 0
DWIDTH 10 0
BBX 10 11 0 0
BITMAP
C0C0
6180
6180
2180
3100
3300
3300
1200
1E00
1E00
0C00
ENDCHAR
STARTCHAR 0057
ENCODING 87
SWIDTH 600 0
DWIDTH 10 0
BBX 10 11 0 0
BITMAP
CCC0
CCC0
CCC0
4C80
4E80
7E80
7380
7380
7380
3300
3300
ENDCHAR
STARTCHAR 0058
ENCODING 88
SWIDTH 600 0
DWIDTH 10 0
BBX 10 11 0 0
BITMAP
6180
3100
3300
1E00
0C00
0C00
1E00
3300
3300
6180
C0C0
ENDCHAR
STARTCHAR 0059
ENCODING 89
SWIDTH 600 0
DWIDTH 10 0
BBX 10 11 0 0
BITMAP
E1C0
6180
3300
3300
1E00
1E00
0C00
0C00
0C00
0C00
0C00
ENDCHAR
STARTCHAR 005A
ENCODING 90
SWIDTH 600 0
DWIDTH 10 0
BBX 8 11 1 0
BITMAP
FF
06
06
0C
18
18
30
70
60
C0
FF
ENDCHAR
STARTCHAR 005B
ENCODING 91
SWIDTH 600 0
DWIDTH 10 0
BBX 3 14 4 -3
BITMAP
E0
C0
C0
C0
C0
C0
C0
C0
C0
C0
C0
C0
C0
E0
ENDCHAR
STARTCHAR 005C
ENCODING 92
SWIDTH 600 0
DWIDTH 10 0
BBX 10 14 0 -3
BITMAP
C000
6000
2000
3000
1000
0800
0C00
0400
0600
0200
0300
0100
0080
00C0
ENDCHAR
STARTCHAR 005D
ENCODING 93
SWIDTH 600 0
DWIDTH 10 0
BBX 3 14 3 -3
BITMAP
E0
60
60
60
60
60
60
60
60
60
60
60
60
E0
ENDCHAR
STARTCHAR 005E
ENCODING 94
SWIDTH 600 0
DWIDTH 10 0
BBX 8 9 1 0
BITMAP
18
18
3C
24
24
66
42
C3
81
ENDCHAR
STARTCHAR 005F
ENCODING 95
SWIDTH 600 0
DWIDTH 10 0
BBX 8 1 1 -2
BITMAP
FF
ENDCHAR
STARTCHAR 0060
ENCODING 96
SWIDTH 600 0
DWIDTH 10 0
BBX 2 3 4 10
BITMAP
80
C0
40
ENDCHAR
STARTCHAR 0061
ENCODING 97
SWIDTH 600 0
DWIDTH 10 0
BBX 8 9 1 0
BITMAP
38
7E
C2
02
3E
C2
C6
C6
7B
ENDCHAR
STARTCHAR 0062
ENCODING 98
SWIDTH 600 0
DWIDTH 10 0
BBX 7 12 2 0
BITMAP
80
80
80
B8
FC
C6
86
86
86
86
C4
BC
ENDCHAR
STARTCHAR 0063
ENCODING 99
SWIDTH 600 0
DWIDTH 10 0
BBX 8 9 1 0
BITMAP
18
7E
C2
C3
C0
C0
C3
66
3C
ENDCHAR
STARTCHAR 0064
ENCODING 100
SWIDTH 600 0
DWIDTH 10 0
BBX 7 12 1 0
BITMAP
02
02
02
3A
7E
C6
C2
C2
C2
C2
C6
7A
ENDCHAR
STARTCHAR 0065
ENCODING 101
SWIDTH 600 0
DWIDTH 10 0
BBX 8 9 1 0
BITMAP
18
7E
C3
C3
FF
C0
C3
62
3C
ENDCHAR
STARTCHAR 0066
ENCODING 102
SWIDTH 600 0
DWIDTH 10 0
BBX 8 12 1 0
BITMAP
0F
18
10
FF
FF
10
10
10
10
10
10
FF
ENDCHAR
STARTCHAR 0067
ENCODING 103
SWIDTH 600 0
DWIDTH 10 0
BBX 9 13 1 -3
BITMAP
0180
1F00
6600
4300
4300
6600
7C00
C000
FE00
7F00
8180
8100
FF00
ENDCHAR
STARTCHAR 0068
ENCODING 104
SWIDTH 600 0
DWIDTH 10 0
BBX 8 12 1 0
BITMAP
C0
C0
C0
CC
FE
C3
C3
C3
C3
C3
C3
C3
ENDCHAR
STARTCHAR 0069
ENCODING 105
SWIDTH 600 0
DWIDTH 10 0
BBX 7 12 2 0
BITMAP
10
10
00
F0
F0
10
10
10
10
10
10
FE
ENDCHAR
STARTCHAR 006A
ENCODING 106
SWIDTH 600 0
DWIDTH 10 0
BBX 4 15 2 -3
BITMAP
10
10
00
F0
F0
10
10
10
10
10
10
10
10
B0
E0
ENDCHAR
STARTCHAR 006B
ENCODING 107
SWIDTH 600 0
DWIDTH 10 0
BBX 8 12 1 0
BITMAP
C0
C0
C0
C3
C6
CC
D8
D8
F8
CC
C6
C3
ENDCHAR
STARTCHAR 006C
ENCODING 108
SWIDTH 600 0
DWIDTH 10 0
BBX 8 12 1 0
BITMAP
F8
18
18
18
18
18
18
18
18
18
18
FF
ENDCHAR
STARTCHAR 006D
ENCODING 109
SWIDTH 600 0
DWIDTH 10 0
BBX 8 9 1 0
BITMAP
B6
FF
99
99
99
99
99
99
99
ENDCHAR
STARTCHAR 006E
ENCODING 110
SWIDTH 600 0
DWIDTH 10 0
BBX 8 9 1 0
BITMAP
DC
FE
C3
C3
C3
C3
C3
C3
C3
ENDCHAR
STARTCHAR 006F
ENCODING 111
SWIDTH 600 0
DWIDTH 10 0
BBX 8 9 1 0
BITMAP
18
7E
C3
C3
C3
C3
C3
66
3C
ENDCHAR
STARTCHAR 0070
ENCODING 112
SWIDTH 600 0
DWIDTH 10 0
BBX 7 12 2 -3
BITMAP
B8
FC
C6
86
86
86
86
C4
BC
80
80
80
ENDCHAR
STARTCHAR 0071
ENCODING 113
SWIDTH 600 0
DWIDTH 10 0
BBX 7 12 1 -3
BITMAP
3A
7E
C6
C2
C2
C2
C2
C6
7A
02
02
02
ENDCHAR
STARTCHAR 0072
ENCODING 114
SWIDTH 600 0
DWIDTH 10 0
BBX 8 9 1 0
BITMAP
E6
FF
31
31
30
30
30
30
FE
ENDCHAR
STARTCHAR 0073
ENCODING 115
SWIDTH 600 0
DWIDTH 10 0
BBX 8 9 1 0
BITMAP
18
7E
C2
60
7C
07
C3
C3
7E
ENDCHAR
STARTCHAR 0074
ENCODING 116
SWIDTH 600 0
DWIDTH 10 0
BBX 8 11 1 0
BITMAP
10
10
FF
FF
30
30
30
30
30
39
1F
ENDCHAR
STARTCHAR 0075
ENCODING 117
SWIDTH 600 0
DWIDTH 10 0
BBX 9 9 1 0
BITMAP
C200
C200
C200
C200
C200
C200
C200
E600
7B80
ENDCHAR
STARTCHAR 0076
ENCODING 118
SWIDTH 600 0
DWIDTH 10 0
BBX 8 9 1 0
BITMAP
C1
C3
42
66
66
24
3C
18
18
ENDCHAR
STARTCHAR 0077
ENCODING 119
SWIDTH 600 0
DWIDTH 10 0
BBX 10 9 0 0
BITMAP
8C40
CCC0
CCC0
4E80
5A80
7280
7380
3300
3300
ENDCHAR
STARTCHAR 0078
ENCODING 120
SWIDTH 600 0
DWIDTH 10 0
BBX 8 9 1 0
BITMAP
C3
66
26
3C
18
3C
2C
66
C3
ENDCHAR
STARTCHAR 0079
ENCODING 121
SWIDTH 600 0
DWIDTH 10 0
BBX 8 12 1 -3
BITMAP
C3
C3
42
66
66
34
3C
18
18
18
30
E0
ENDCHAR
STARTCHAR 007A
ENCODING 122
SWIDTH 600 0
DWIDTH 10 0
BBX 6 9 2 0
BITMAP
FC
FC
18
18
30
20
60
C0
FC
ENDCHAR
STARTCHAR 007B
ENCODING 123
SWIDTH 600 0
DWIDTH 10 0
BBX 4 15 3 -3
BITMAP
10
20
60
60
60
60
60
C0
40
60
60
60
60
60
10
ENDCHAR
STARTCHAR 007C
ENCODING 124
SWIDTH 600 0
DWIDTH 10 0
BBX 2 15 4 -3
BITMAP
C0
C0
C0
C0
C0
C0
C0
C0
C0
C0
C0
C0
C0
C0
C0
ENDCHAR
STARTCHAR 007D
ENCODING 125
SWIDTH 600 0
DWIDTH 10 0
BBX 4 15 3 -3
BITMAP
80
40
60
60
60
60
60
30
20
60
60
60
60
60
80
ENDCHAR
STARTCHAR 007E
ENCODING 126
SWIDTH 600 0
DWIDTH 10 0
BBX 10 2 0 4
BITMAP
7840
C780
ENDCHAR
STARTCHAR 00A0
ENCODING 160
SWIDTH 600 0
DWIDTH 10 0
BBX 0 0 0 0
BITMAP
ENDCHAR
STARTCHAR 00A1
ENCODING 161
SWIDTH 600 0
DWIDTH 10 0
BBX 2 12 4 -3
BITMAP
C0
C0
C0
00
C0
C0
C0
C0
C0
C0
C0
C0
ENDCHAR
STARTCHAR 00A2
ENCODING 162
SWIDTH 600 0
DWIDTH 10 0
BBX 8 12 1 0
BITMAP
18
08
3C
62
C3
C0
C0
C3
43
76
1C
18
ENDCHAR
STARTCHAR 00A3
ENCODING 163
SWIDTH 600 0
DWIDTH 10 0
BBX 9 12 0 0
BITMAP
0600
1F80
3180
3080
3000
3000
FE00
3000
3000
3000
3000
7F80
ENDCHAR
STARTCHAR 00A4
ENCODING 164
SWIDTH 600 0
DWIDTH 10 0
BBX 8 9 1 1
BITMAP
99
E7
C3
81
81
81
C3
FF
91
ENDCHAR
STARTCHAR 00A5
ENCODING 165
SWIDTH 600 0
DWIDTH 10 0
BBX 10 11 0 0
BITMAP
E1C0
6180
3300
3300
7F80
1E00
7F80
0C00
0C00
0C00
0C00
ENDCHAR
STARTCHAR 00A6
ENCODING 166
SWIDTH 600 0
DWIDTH 10 0
BBX 2 15 4 -3
BITMAP
C0
C0
C0
C0
C0
C0
00
00
00
C0
C0
C0
C0
C0
C0
ENDCHAR
STARTCHAR 00A7
ENCODING 167
SWIDTH 600 0
DWIDTH 10 0
BBX 8 15 1 -3
BITMAP
18
7E
42
40
70
7C
46
C3
63
7A
1C
06
42
42
3C
ENDCHAR
STARTCHAR 00A8
ENCODING 168
SWIDTH 600 0
DWIDTH 10 0
BBX 6 2 2 10
BITMAP
CC
CC
ENDCHAR
STARTCHAR 00A9
ENCODING 169
SWIDTH 600 0
DWIDTH 10 0
BBX 10 12 0 0
BITMAP
1E00
2100
4080
9E40
B140
B140
B040
B140
9240
4E80
4080
3F00
ENDCHAR
STARTCHAR 00AA
ENCODING 170
SWIDTH 600 0
DWIDTH 10 0
BBX 6 6 2 6
BITMAP
30
48
38
48
D8
6C
ENDCHAR
STARTCHAR 00AB
ENCODING 171
SWIDTH 600 0
DWIDTH 10 0
BBX 6 6 2 3
BITMAP
24
4C
C8
98
C8
6C
ENDCHAR
STARTCHAR 00AC
ENCODING 172
SWIDTH 600 0
DWIDTH 10 0
BBX 8 5 1 3
BITMAP
FF
FF
01
01
01
ENDCHAR
STARTCHAR 00AD
ENCODING 173
SWIDTH 600 0
DWIDTH 10 0
BBX 4 1 3 4
BITMAP
F0
ENDCHAR
STARTCHAR 00AE
ENCODING 174
SWIDTH 600 0
DWIDTH 10 0
BBX 10 12 0 0
BITMAP
1E00
2100
4080
9E40
9340
9240
9E40
9240
9340
5180
4080
3F00
ENDCHAR
STARTCHAR 00AF
ENCODING 175
SWIDTH 600 0
DWIDTH 10 0
BBX 6 1 2 10
BITMAP
FC
ENDCHAR
STARTCHAR 00B0
ENCODING 176
SWIDTH 600 0
DWIDTH 10 0
BBX 6 5 2 7
BITMAP
30
48
CC
4C
78
ENDCHAR
STARTCHAR 00B1
ENCODING 177
SWIDTH 600 0
DWIDTH 10 0
BBX 8 9 1 0
BITMAP
18
18
18
FF
18
18
18
00
FF
ENDCHAR
STARTCHAR 00B2
ENCODING 178
SWIDTH 600 0
DWIDTH 10 0
BBX 4 6 3 7
BITMAP
F0
90
10
60
C0
F0
ENDCHAR
STARTCHAR 00B3
ENCODING 179
SWIDTH 600 0
DWIDTH 10 0
BBX 4 6 3 7
BITMAP
F0
90
70
10
90
F0
ENDCHAR
STARTCHAR 00B4
ENCODING 180
SWIDTH 600 0
DWIDTH 10 0
BBX 2 3 4 10
BITMAP
40
C0
80
ENDCHAR
STARTCHAR 00B5
ENCODING 181
SWIDTH 600 0
DWIDTH 10 0
BBX 9 12 1 -3
BITMAP
C200
C200
C200
C200
C200
C200
C200
E600
FB80
C000
C000
C000
ENDCHAR
STARTCHAR 00B6
ENCODING 182
SWIDTH 600 0
DWIDTH 10 0
BBX 7 14 1 -3
BITMAP
7E
F4
F4
F4
F4
74
34
14
14
14
14
14
14
14
ENDCHAR
STARTCHAR 00B7
ENCODING 183
SWIDTH 600 0
DWIDTH 10 0
BBX 2 2 4 5
BITMAP
C0
C0
ENDCHAR
STARTCHAR 00B8
ENCODING 184
SWIDTH 600 0
DWIDTH 10 0
BBX 4 3 3 -3
BITMAP
60
10
F0
ENDCHAR
STARTCHAR 00B9
ENCODING 185
SWIDTH 600 0
DWIDTH 10 0
BBX 4 6 3 7
BITMAP
E0
60
60
60
60
F0
ENDCHAR
STARTCHAR 00BA
ENCODING 186
SWIDTH 600 0
DWIDTH 10 0
BBX 4 6 3 6
BITMAP
60
90
90
90
90
60
ENDCHAR
STARTCHAR 00BB
ENCODING 187
SWIDTH 600 0
DWIDTH 10 0
BBX 6 6 2 3
BITMAP
90
C8
4C
64
4C
D8
ENDCHAR
STARTCHAR 00BC
ENCODING 188
SWIDTH 600 0
DWIDTH 10 0
BBX 10 11 0 0
BITMAP
E0C0
2100
2100
2200
2400
F100
0B80
1280
2480
43C0
C080
ENDCHAR
STARTCHAR 00BD
ENCODING 189
SWIDTH 600 0
DWIDTH 10 0
BBX 10 11 0 0
BITMAP
E0C0
2100
2100
2200
2400
F3C0
1A40
1040
2180
4200
C3C0
ENDCHAR
STARTCHAR 00BE
ENCODING 190
SWIDTH 600 0
DWIDTH 10 0
BBX 10 11 0 0
BITMAP
F0C0
9100
7100
1200
9C00
F100
0B80
1280
2480
43C0
C080
ENDCHAR
STARTCHAR 00BF
ENCODING 191
SWIDTH 600 0
DWIDTH 10 0
BBX 8 12 1 -3
BITMAP
18
18
18
00
18
10
70
60
C3
C3
66
3C
ENDCHAR
STARTCHAR 00C0
ENCODING 192
SWIDTH 600 0
DWIDTH 10 0
BBX 10 15 0 0
BITMAP
1000
0800
0400
0000
0C00
1E00
1E00
1200
3300
3300
2100
7F80
6180
4080
C0C0
ENDCHAR
STARTCHAR 00C1
ENCODING 193
SWIDTH 600 0
DWIDTH 10 0
BBX 10 15 0 0
BITMAP
0300
0400
0800
0000
0C00
1E00
1E00
1200
3300
3300
2100
7F80
6180
4080
C0C0
ENDCHAR
STARTCHAR 00C2
ENCODING 194
SWIDTH 600 0
DWIDTH 10 0
BBX 10 15 0 0
BITMAP
0C00
1200
2100
0000
0C00
1E00
1E00
1200
3300
3300
2100
7F80
6180
4080
C0C0
ENDCHAR
STARTCHAR 00C3
ENCODING 195
SWIDTH 600 0
DWIDTH 10 0
BBX 10 15 0 0
BITMAP
1900
3F00
0000
0000
0C00
1E00
1E00
1200
3300
3300
2100
7F80
6180
4080
C0C0
ENDCHAR
STARTCHAR 00C4
ENCODING 196
SWIDTH 600 0
DWIDTH 10 0
BBX 10 14 0 0
BITMAP
3300
0000
0000
0C00
1E00
1E00
1200
3300
3300
2100
7F80
6180
4080
C0C0
ENDCHAR
STARTCHAR 00C5
ENCODING 197
SWIDTH 600 0
DWIDTH 10 0
BBX 10 16 0 0
BITMAP
0C00
1200
1200
0C00
0000
0C00
1E00
1E00
1200
3300
3300
2100
7F80
6180
4080
C0C0
ENDCHAR
STARTCHAR 00C6
ENCODING 198
SWIDTH 600 0
DWIDTH 10 0
BBX 10 11 0 0
BITMAP
1FC0
1E00
1600
3600
3780
2780
6600
7E00
4600
C600
C7C0
ENDCHAR
STARTCHAR 00C7
ENCODING 199
SWIDTH 600 0
DWIDTH 10 0
BBX 8 15 1 -3
BITMAP
18
7E
C3
C3
81
80
80
80
81
C3
E7
7E
18
04
3C
ENDCHAR
STARTCHAR 00C8
ENCODING 200
SWIDTH 600 0
DWIDTH 10 0
BBX 8 15 1 0
BITMAP
30
10
08
00
FF
C0
C0
C0
FE
FE
C0
C0
C0
C0
FF
ENDCHAR
STARTCHAR 00C9
ENCODING 201
SWIDTH 600 0
DWIDTH 10 0
BBX 8 15 1 0
BITMAP
06
0C
00
00
FF
C0
C0
C0
FE
FE
C0
C0
C0
C0
FF
ENDCHAR
STARTCHAR 00CA
ENCODING 202
SWIDTH 600 0
DWIDTH 10 0
BBX 8 15 1 0
BITMAP
18
34
42
00
FF
C0
C0
C0
FE
FE
C0
C0
C0
C0
FF
ENDCHAR
STARTCHAR 00CB
ENCODING 203
SWIDTH 600 0
DWIDTH 10 0
BBX 8 14 1 0
BITMAP
26
00
00
FF
C0
C0
C0
FE
FE
C0
C0
C0
C0
FF
ENDCHAR
STARTCHAR 00CC
ENCODING 204
SWIDTH 600 0
DWIDTH 10 0
BBX 6 15 2 0
BITMAP
40
20
10
00
FC
30
30
30
30
30
30
30
30
30
FC
ENDCHAR
STARTCHAR 00CD
ENCODING 205
SWIDTH 600 0
DWIDTH 10 0
BBX 6 15 2 0
BITMAP
0C
10
20
00
FC
30
30
30
30
30
30
30
30
30
FC
ENDCHAR
STARTCHAR 00CE
ENCODING 206
SWIDTH 600 0
DWIDTH 10 0
BBX 6 15 2 0
BITMAP
30
48
84
00
FC
30
30
30
30
30
30
30
30
30
FC
ENDCHAR
STARTCHAR 00CF
ENCODING 207
SWIDTH 600 0
DWIDTH 10 0
BBX 6 14 2 0
BITMAP
CC
00
00
FC
30
30
30
30
30
30
30
30
30
FC
ENDCHAR
STARTCHAR 00D0
ENCODING 208
SWIDTH 600 0
DWIDTH 10 0
BBX 10 11 0 0
BITMAP
7F00
6180
60C0
60C0
60C0
FCC0
60C0
60C0
6180
6380
7F00
ENDCHAR
STARTCHAR 00D1
ENCODING 209
SWIDTH 600 0
DWIDTH 10 0
BBX 8 15 1 0
BITMAP
32
7E
00
00
C3
E3
E3
F3
D3
DB
CB
CF
C7
C7
C3
ENDCHAR
STARTCHAR 00D2
ENCODING 210
SWIDTH 600 0
DWIDTH 10 0
BBX 8 15 1 0
BITMAP
20
10
08
18
7E
C3
C3
81
81
81
81
81
C3
E7
7E
ENDCHAR
STARTCHAR 00D3
ENCODING 211
SWIDTH 600 0
DWIDTH 10 0
BBX 8 15 1 0
BITMAP
06
08
10
18
7E
C3
C3
81
81
81
81
81
C3
E7
7E
ENDCHAR
STARTCHAR 00D4
ENCODING 212
SWIDTH 600 0
DWIDTH 10 0
BBX 8 15 1 0
BITMAP
18
24
42
18
7E
C3
C3
81
81
81
81
81
C3
E7
7E
ENDCHAR
STARTCHAR 00D5
ENCODING 213
SWIDTH 600 0
DWIDTH 10 0
BBX 8 15 1 0
BITMAP
32
7E
00
18
7E
C3
C3
81
81
81
81
81
C3
E7
7E
ENDCHAR
STARTCHAR 00D6
ENCODING 214
SWIDTH 600 0
DWIDTH 10 0
BBX 8 14 1 0
BITMAP
66
00
18
7E
C3
C3
81
81
81
81
81
C3
E7
7E
ENDCHAR
STARTCHAR 00D7
ENCODING 215
SWIDTH 600 0
DWIDTH 10 0
BBX 7 7 2 1
BITMAP
84
CE
78
30
78
CC
84
ENDCHAR
STARTCHAR 00D8
ENCODING 216
SWIDTH 600 0
DWIDTH 10 0
BBX 10 14 0 -1
BITMAP
00C0
0C80
3F00
6180
6380
4280
4480
4880
4880
5080
7180
7380
7F00
C000
ENDCHAR
STARTCHAR 00D9
ENCODING 217
SWIDTH 600 0
DWIDTH 10 0
BBX 8 15 1 0
BITMAP
20
10
08
00
C3
C3
C3
C3
C3
C3
C3
C3
C3
66
7E
ENDCHAR
STARTCHAR 00DA
ENCODING 218
SWIDTH 600 0
DWIDTH 10 0
BBX 8 15 1 0
BITMAP
06
08
10
00
C3
C3
C3
C3
C3
C3
C3
C3
C3
66
7E
ENDCHAR
STARTCHAR 00DB
ENCODING 219
SWIDTH 600 0
DWIDTH 10 0
BBX 8 15 1 0
BITMAP
18
24
42
00
C3
C3
C3
C3
C3
C3
C3
C3
C3
66
7E
ENDCHAR
STARTCHAR 00DC
ENCODING 220
SWIDTH 600 0
DWIDTH 10 0
BBX 8 14 1 0
BITMAP
66
00
00
C3
C3
C3
C3
C3
C3
C3
C3
C3
66
7E
ENDCHAR
STARTCHAR 00DD
ENCODING 221
SWIDTH 600 0
DWIDTH 10 0
BBX 10 15 0 0
BITMAP
0300
0400
0800
8040
6180
6180
3300
3300
1E00
1E00
0C00
0C00
0C00
0C00
0C00
ENDCHAR
STARTCHAR 00DE
ENCODING 222
SWIDTH 600 0
DWIDTH 10 0
BBX 9 11 1 0
BITMAP
C000
C000
FF00
C300
C180
C180
C300
FE00
C000
C000
C000
ENDCHAR
STARTCHAR 00DF
ENCODING 223
SWIDTH 600 0
DWIDTH 10 0
BBX 9 13 0 -1
BITMAP
1F00
3300
2180
E180
E100
6E00
6380
6180
6080
6180
6380
6E00
6000
ENDCHAR
STARTCHAR 00E0
ENCODING 224
SWIDTH 600 0
DWIDTH 10 0
BBX 8 13 1 0
BITMAP
20
30
10
08
38
7E
C2
02
3E
C2
C6
C6
7B
ENDCHAR
STARTCHAR 00E1
ENCODING 225
SWIDTH 600 0
DWIDTH 10 0
BBX 8 13 1 0
BITMAP
0C
08
18
00
38
7E
C2
02
3E
C2
C6
C6
7B
ENDCHAR
STARTCHAR 00E2
ENCODING 226
SWIDTH 600 0
DWIDTH 10 0
BBX 8 13 1 0
BITMAP
18
38
64
02
38
7E
C2
02
3E
C2
C6
C6
7B
ENDCHAR
STARTCHAR 00E3
ENCODING 227
SWIDTH 600 0
DWIDTH 10 0
BBX 8 12 1 0
BITMAP
72
4C
00
38
7E
C2
02
3E
C2
C6
C6
7B
ENDCHAR
STARTCHAR 00E4
ENCODING 228
SWIDTH 600 0
DWIDTH 10 0
BBX 8 12 1 0
BITMAP
64
64
00
38
7E
C2
02
3E
C2
C6
C6
7B
ENDCHAR
STARTCHAR 00E5
ENCODING 229
SWIDTH 600 0
DWIDTH 10 0
BBX 8 13 1 0
BITMAP
38
24
38
00
38
7E
C2
02
3E
C2
C6
C6
7B
ENDCHAR
STARTCHAR 00E6
ENCODING 230
SWIDTH 600 0
DWIDTH 10 0
BBX 10 9 0 0
BITMAP
3300
7F80
4CC0
0CC0
7FC0
4C00
CCC0
CCC0
7780
ENDCHAR
STARTCHAR 00E7
ENCODING 231
SWIDTH 600 0
DWIDTH 10 0
BBX 8 12 1 -3
BITMAP
18
7E
C2
C3
C0
C0
C3
66
3C
18
04
3C
ENDCHAR
STARTCHAR 00E8
ENCODING 232
SWIDTH 600 0
DWIDTH 10 0
BBX 8 13 1 0
BITMAP
30
10
18
00
18
7E
C3
C3
FF
C0
C3
62
3C
ENDCHAR
STARTCHAR 00E9
ENCODING 233
SWIDTH 600 0
DWIDTH 10 0
BBX 8 13 1 0
BITMAP
0C
08
18
00
18
7E
C3
C3
FF
C0
C3
62
3C
ENDCHAR
STARTCHAR 00EA
ENCODING 234
SWIDTH 600 0
DWIDTH 10 0
BBX 8 13 1 0
BITMAP
18
1C
26
40
18
7E
C3
C3
FF
C0
C3
62
3C
ENDCHAR
STARTCHAR 00EB
ENCODING 235
SWIDTH 600 0
DWIDTH 10 0
BBX 8 12 1 0
BITMAP
66
66
00
18
7E
C3
C3
FF
C0
C3
62
3C
ENDCHAR
STARTCHAR 00EC
ENCODING 236
SWIDTH 600 0
DWIDTH 10 0
BBX 7 13 2 0
BITMAP
60
20
10
00
F0
F0
10
10
10
10
10
10
FE
ENDCHAR
STARTCHAR 00ED
ENCODING 237
SWIDTH 600 0
DWIDTH 10 0
BBX 7 13 2 0
BITMAP
08
18
10
20
F0
F0
10
10
10
10
10
10
FE
ENDCHAR
STARTCHAR 00EE
ENCODING 238
SWIDTH 600 0
DWIDTH 10 0
BBX 7 13 2 0
BITMAP
10
38
4C
00
F0
F0
10
10
10
10
10
10
FE
ENDCHAR
STARTCHAR 00EF
ENCODING 239
SWIDTH 600 0
DWIDTH 10 0
BBX 7 12 2 0
BITMAP
4C
4C
00
F0
F0
10
10
10
10
10
10
FE
ENDCHAR
STARTCHAR 00F0
ENCODING 240
SWIDTH 600 0
DWIDTH 10 0
BBX 8 12 1 0
BITMAP
6C
38
4C
3E
7E
C3
C3
C3
C3
C3
66
3C
ENDCHAR
STARTCHAR 00F1
ENCODING 241
SWIDTH 600 0
DWIDTH 10 0
BBX 8 12 1 0
BITMAP
3A
4C
00
DC
FE
C3
C3
C3
C3
C3
C3
C3
ENDCHAR
STARTCHAR 00F2
ENCODING 242
SWIDTH 600 0
DWIDTH 10 0
BBX 8 13 1 0
BITMAP
30
10
18
00
18
7E
C3
C3
C3
C3
C3
66
3C
ENDCHAR
STARTCHAR 00F3
ENCODING 243
SWIDTH 600 0
DWIDTH 10 0
BBX 8 13 1 0
BITMAP
0C
08
18
00
18
7E
C3
C3
C3
C3
C3
66
3C
ENDCHAR
STARTCHAR 00F4
ENCODING 244
SWIDTH 600 0
DWIDTH 10 0
BBX 8 13 1 0
BITMAP
18
3C
66
00
18
7E
C3
C3
C3
C3
C3
66
3C
ENDCHAR
STARTCHAR 00F5
ENCODING 245
SWIDTH 600 0
DWIDTH 10 0
BBX 8 12 1 0
BITMAP
7A
4C
00
18
7E
C3
C3
C3
C3
C3
66
3C
ENDCHAR
STARTCHAR 00F6
ENCODING 246
SWIDTH 600 0
DWIDTH 10 0
BBX 8 12 1 0
BITMAP
66
66
00
18
7E
C3
C3
C3
C3
C3
66
3C
ENDCHAR
STARTCHAR 00F7
ENCODING 247
SWIDTH 600 0
DWIDTH 10 0
BBX 8 7 1 1
BITMAP
18
18
00
FF
00
00
18
ENDCHAR
STARTCHAR 00F8
ENCODING 248
SWIDTH 600 0
DWIDTH 10 0
BBX 8 11 1 -1
BITMAP
01
1A
7E
C7
CB
CB
D3
E3
66
7C
80
ENDCHAR
STARTCHAR 00F9
ENCODING 249
SWIDTH 600 0
DWIDTH 10 0
BBX 9 13 1 0
BITMAP
2000
3000
1800
0000
C200
C200
C200
C200
C200
C200
C200
E600
7B80
ENDCHAR
STARTCHAR 00FA
ENCODING 250
SWIDTH 600 0
DWIDTH 10 0
BBX 9 13 1 0
BITMAP
0C00
0800
1800
0000
C200
C200
C200
C200
C200
C200
C200
E600
7B80
ENDCHAR
STARTCHAR 00FB
ENCODING 251
SWIDTH 600 0
DWIDTH 10 0
BBX 9 13 1 0
BITMAP
1800
3800
6400
0200
C200
C200
C200
C200
C200
C200
C200
E600
7B80
ENDCHAR
STARTCHAR 00FC
ENCODING 252
SWIDTH 600 0
DWIDTH 10 0
BBX 9 12 1 0
BITMAP
6400
6400
0000
C200
C200
C200
C200
C200
C200
C200
E600
7B80
ENDCHAR
STARTCHAR 00FD
ENCODING 253
SWIDTH 600 0
DWIDTH 10 0
BBX 8 16 1 -3
BITMAP
0C
08
18
00
C3
C3
42
66
66
34
3C
18
18
18
30
E0
ENDCHAR
STARTCHAR 00FE
ENCODING 254
SWIDTH 600 0
DWIDTH 10 0
BBX 7 15 2 -3
BITMAP
80
80
80
B8
FC
C6
86
86
86
86
C4
BC
80
80
80
ENDCHAR
STARTCHAR 00FF
ENCODING 255
SWIDTH 600 0
DWIDTH 10 0
BBX 8 15 1 -3
BITMAP
26
26
00
C3
C3
42
66
66
34
3C
18
18
18
30
E0
ENDCHAR
STARTCHAR 0100
ENCODING 256
SWIDTH 600 0
DWIDTH 10 0
BBX 10 14 0 0
BITMAP
3F00
0000
0000
0C00
1E00
1E00
1200
3300
3300
2100
7F80
6180
4080
C0C0
ENDCHAR
STARTCHAR 0101
ENCODING 257
SWIDTH 600 0
DWIDTH 10 0
BBX 8 11 1 0
BITMAP
7C
00
38
7E
C2
02
3E
C2
C6
C6
7B
ENDCHAR
STARTCHAR 0102
ENCODING 258
SWIDTH 600 0
DWIDTH 10 0
BBX 10 15 0 0
BITMAP
2300
1E00
0000
0000
0C00
1E00
1E00
1200
3300
3300
2100
7F80
6180
4080
C0C0
ENDCHAR
STARTCHAR 0103
ENCODING 259
SWIDTH 600 0
DWIDTH 10 0
BBX 8 12 1 0
BITMAP
46
3C
00
38
7E
C2
02
3E
C2
C6
C6
7B
ENDCHAR
STARTCHAR 0104
ENCODING 260
SWIDTH 600 0
DWIDTH 10 0
BBX 10 13 0 -2
BITMAP
0C00
1E00
1E00
1200
3300
3300
2100
7F80
6180
4080
C0C0
0180
01C0
ENDCHAR
STARTCHAR 0105
ENCODING 261
SWIDTH 600 0
DWIDTH 10 0
BBX 9 11 1 -2
BITMAP
3800
7E00
C200
0200
3E00
C200
C600
C600
7B00
0200
0380
ENDCHAR
STARTCHAR 0106
ENCODING 262
SWIDTH 600 0
DWIDTH 10 0
BBX 8 15 1 0
BITMAP
06
08
10
18
7E
C3
C3
81
80
80
80
81
C3
E7
7E
ENDCHAR
STARTCHAR 0107
ENCODING 263
SWIDTH 600 0
DWIDTH 10 0
BBX 8 13 1 0
BITMAP
0C
08
18
00
18
7E
C2
C3
C0
C0
C3
66
3C
ENDCHAR
STARTCHAR 0108
ENCODING 264
SWIDTH 600 0
DWIDTH 10 0
BBX 8 15 1 0
BITMAP
18
24
42
18
7E
C3
C3
81
80
80
80
81
C3
E7
7E
ENDCHAR
STARTCHAR 0109
ENCODING 265
SWIDTH 600 0
DWIDTH 10 0
BBX 8 13 1 0
BITMAP
18
3C
66
00
18
7E
C2
C3
C0
C0
C3
66
3C
ENDCHAR
STARTCHAR 010A
ENCODING 266
SWIDTH 600 0
DWIDTH 10 0
BBX 8 14 1 0
BITMAP
18
00
18
7E
C3
C3
81
80
80
80
81
C3
E7
7E
ENDCHAR
STARTCHAR 010B
ENCODING 267
SWIDTH 600 0
DWIDTH 10 0
BBX 8 12 1 0
BITMAP
18
18
00
18
7E
C2
C3
C0
C0
C3
66
3C
ENDCHAR
STARTCHAR 010C
ENCODING 268
SWIDTH 600 0
DWIDTH 10 0
BBX 8 15 1 0
BITMAP
66
3C
00
18
7E
C3
C3
81
80
80
80
81
C3
E7
7E
ENDCHAR
STARTCHAR 010D
ENCODING 269
SWIDTH 600 0
DWIDTH 10 0
BBX 8 13 1 0
BITMAP
66
24
18
00
18
7E
C2
C3
C0
C0
C3
66
3C
ENDCHAR
STARTCHAR 010E
ENCODING 270
SWIDTH 600 0
DWIDTH 10 0
BBX 9 15 1 0
BITMAP
6600
3C00
0000
0000
FE00
C300
C180
C180
C180
C180
C180
C180
C300
C700
FE00
ENDCHAR
STARTCHAR 010F
ENCODING 271
SWIDTH 600 0
DWIDTH 10 0
BBX 10 12 1 0
BITMAP
02C0
02C0
0240
3A40
7E80
C600
C200
C200
C200
C200
C600
7A00
ENDCHAR
STARTCHAR 0110
ENCODING 272
SWIDTH 600 0
DWIDTH 10 0
BBX 10 11 0 0
BITMAP
7F00
6180
60C0
60C0
60C0
FCC0
60C0
60C0
6180
6380
7F00
ENDCHAR
STARTCHAR 0111
ENCODING 273
SWIDTH 600 0
DWIDTH 10 0
BBX 9 12 1 0
BITMAP
0200
1F80
0200
3A00
7E00
C600
C200
C200
C200
C200
C600
7A00
ENDCHAR
STARTCHAR 0112
ENCODING 274
SWIDTH 600 0
DWIDTH 10 0
BBX 8 14 1 0
BITMAP
3E
00
00
FF
C0
C0
C0
FE
FE
C0
C0
C0
C0
FF
ENDCHAR
STARTCHAR 0113
ENCODING 275
SWIDTH 600 0
DWIDTH 10 0
BBX 8 11 1 0
BITMAP
3E
00
18
7E
C3
C3
FF
C0
C3
62
3C
ENDCHAR
STARTCHAR 0114
ENCODING 276
SWIDTH 600 0
DWIDTH 10 0
BBX 8 15 1 0
BITMAP
22
3C
00
00
FF
C0
C0
C0
FE
FE
C0
C0
C0
C0
FF
ENDCHAR
STARTCHAR 0115
ENCODING 277
SWIDTH 600 0
DWIDTH 10 0
BBX 8 12 1 0
BITMAP
66
3C
00
18
7E
C3
C3
FF
C0
C3
62
3C
ENDCHAR
STARTCHAR 0116
ENCODING 278
SWIDTH 600 0
DWIDTH 10 0
BBX 8 14 1 0
BITMAP
18
00
00
FF
C0
C0
C0
FE
FE
C0
C0
C0
C0
FF
ENDCHAR
STARTCHAR 0117
ENCODING 279
SWIDTH 600 0
DWIDTH 10 0
BBX 8 12 1 0
BITMAP
18
18
00
18
7E
C3
C3
FF
C0
C3
62
3C
ENDCHAR
STARTCHAR 0118
ENCODING 280
SWIDTH 600 0
DWIDTH 10 0
BBX 9 13 1 -2
BITMAP
FF00
C000
C000
C000
FE00
FE00
C000
C000
C000
C000
FF00
0600
0780
ENDCHAR
STARTCHAR 0119
ENCODING 281
SWIDTH 600 0
DWIDTH 10 0
BBX 8 11 1 -2
BITMAP
18
7E
C3
C3
FF
C0
C3
62
3C
08
1E
ENDCHAR
STARTCHAR 011A
ENCODING 282
SWIDTH 600 0
DWIDTH 10 0
BBX 8 15 1 0
BITMAP
66
1C
00
00
FF
C0
C0
C0
FE
FE
C0
C0
C0
C0
FF
ENDCHAR
STARTCHAR 011B
ENCODING 283
SWIDTH 600 0
DWIDTH 10 0
BBX 8 13 1 0
BITMAP
66
24
18
00
18
7E
C3
C3
FF
C0
C3
62
3C
ENDCHAR
STARTCHAR 011C
ENCODING 284
SWIDTH 600 0
DWIDTH 10 0
BBX 8 15 1 0
BITMAP
18
24
42
18
7E
C3
C3
81
80
8F
81
81
C3
E7
7D
ENDCHAR
STARTCHAR 011D
ENCODING 285
SWIDTH 600 0
DWIDTH 10 0
BBX 9 15 1 -3
BITMAP
1800
3400
4380
1900
6600
4300
4300
6600
7C00
C000
FE00
7F00
8180
8100
FF00
ENDCHAR
STARTCHAR 011E
ENCODING 286
SWIDTH 600 0
DWIDTH 10 0
BBX 8 15 1 0
BITMAP
62
3C
00
18
7E
C3
C3
81
80
8F
81
81
C3
E7
7D
ENDCHAR
STARTCHAR 011F
ENCODING 287
SWIDTH 600 0
DWIDTH 10 0
BBX 9 15 1 -3
BITMAP
6600
3C80
0100
1F00
6600
4300
4300
6600
7C00
C000
FE00
7F00
8180
8100
FF00
ENDCHAR
STARTCHAR 0120
ENCODING 288
SWIDTH 600 0
DWIDTH 10 0
BBX 8 14 1 0
BITMAP
18
00
18
7E
C3
C3
81
80
8F
81
81
C3
E7
7D
ENDCHAR
STARTCHAR 0121
ENCODING 289
SWIDTH 600 0
DWIDTH 10 0
BBX 9 15 1 -3
BITMAP
1800
1880
0100
1F00
6600
4300
4300
6600
7C00
C000
FE00
7F00
8180
8100
FF00
ENDCHAR
STARTCHAR 0122
ENCODING 290
SWIDTH 600 0
DWIDTH 10 0
BBX 8 17 1 -5
BITMAP
18
7E
C3
C3
81
80
8F
81
81
C3
E7
7D
00
18
18
08
10
ENDCHAR
STARTCHAR 0123
ENCODING 291
SWIDTH 600 0
DWIDTH 10 0
BBX 9 17 1 -3
BITMAP
0800
1000
1800
1880
0100
1F00
6600
4300
4300
6600
7C00
C000
FE00
7F00
8180
8100
FF00
ENDCHAR
STARTCHAR 0124
ENCODING 292
SWIDTH 600 0
DWIDTH 10 0
BBX 8 15 1 0
BITMAP
18
24
42
00
C3
C3
C3
C3
FF
FF
C3
C3
C3
C3
C3
ENDCHAR
STARTCHAR 0125
ENCODING 293
SWIDTH 600 0
DWIDTH 10 0
BBX 10 15 -1 0
BITMAP
3000
6800
8400
3000
3000
3000
3300
3F80
30C0
30C0
30C0
30C0
30C0
30C0
30C0
ENDCHAR
STARTCHAR 0126
ENCODING 294
SWIDTH 600 0
DWIDTH 10 0
BBX 10 11 0 0
BITMAP
6180
FFC0
FFC0
6180
7F80
7F80
6180
6180
6180
6180
6180
ENDCHAR
STARTCHAR 0127
ENCODING 295
SWIDTH 600 0
DWIDTH 10 0
BBX 9 12 0 0
BITMAP
6000
FC00
6000
6600
7F00
6180
6180
6180
6180
6180
6180
6180
ENDCHAR
STARTCHAR 0128
ENCODING 296
SWIDTH 600 0
DWIDTH 10 0
BBX 6 15 2 0
BITMAP
64
FC
00
00
FC
30
30
30
30
30
30
30
30
30
FC
ENDCHAR
STARTCHAR 0129
ENCODING 297
SWIDTH 600 0
DWIDTH 10 0
BBX 7 12 2 0
BITMAP
74
9C
00
F0
F0
10
10
10
10
10
10
FE
ENDCHAR
STARTCHAR 012A
ENCODING 298
SWIDTH 600 0
DWIDTH 10 0
BBX 6 14 2 0
BITMAP
FC
00
00
FC
30
30
30
30
30
30
30
30
30
FC
ENDCHAR
STARTCHAR 012B
ENCODING 299
SWIDTH 600 0
DWIDTH 10 0
BBX 7 11 2 0
BITMAP
7C
00
F0
F0
10
10
10
10
10
10
FE
ENDCHAR
STARTCHAR 012C
ENCODING 300
SWIDTH 600 0
DWIDTH 10 0
BBX 6 15 2 0
BITMAP
8C
78
00
00
FC
30
30
30
30
30
30
30
30
30
FC
ENDCHAR
STARTCHAR 012D
ENCODING 301
SWIDTH 600 0
DWIDTH 10 0
BBX 7 12 2 0
BITMAP
44
78
00
F0
F0
10
10
10
10
10
10
FE
ENDCHAR
STARTCHAR 012E
ENCODING 302
SWIDTH 600 0
DWIDTH 10 0
BBX 6 13 2 -2
BITMAP
FC
30
30
30
30
30
30
30
30
30
FC
10
1C
ENDCHAR
STARTCHAR 012F
ENCODING 303
SWIDTH 600 0
DWIDTH 10 0
BBX 7 14 2 -2
BITMAP
10
10
00
F0
F0
10
10
10
10
10
10
FE
30
3C
ENDCHAR
STARTCHAR 0130
ENCODING 304
SWIDTH 600 0
DWIDTH 10 0
BBX 6 14 2 0
BITMAP
30
00
00
FC
30
30
30
30
30
30
30
30
30
FC
ENDCHAR
STARTCHAR 0131
ENCODING 305
SWIDTH 600 0
DWIDTH 10 0
BBX 7 9 2 0
BITMAP
F0
F0
10
10
10
10
10
10
FE
ENDCHAR
STARTCHAR 0132
ENCODING 306
SWIDTH 600 0
DWIDTH 10 0
BBX 8 11 1 0
BITMAP
C3
C3
C3
C3
C3
C3
03
C3
C3
66
7E
ENDCHAR
STARTCHAR 0133
ENCODING 307
SWIDTH 600 0
DWIDTH 10 0
BBX 8 15 1 -3
BITMAP
C7
C7
00
CE
CE
C2
C2
C2
C2
C2
C2
C2
02
26
1E
ENDCHAR
STARTCHAR 0134
ENCODING 308
SWIDTH 600 0
DWIDTH 10 0
BBX 8 15 2 0
BITMAP
06
1B
00
00
04
04
04
04
04
04
04
04
84
CC
78
ENDCHAR
STARTCHAR 0135
ENCODING 309
SWIDTH 600 0
DWIDTH 10 0
BBX 6 16 2 -3
BITMAP
10
28
6C
00
F0
F0
10
10
10
10
10
10
10
10
B0
E0
ENDCHAR
STARTCHAR 0136
ENCODING 310
SWIDTH 600 0
DWIDTH 10 0
BBX 9 16 1 -5
BITMAP
C380
C600
CC00
CC00
D800
F800
EC00
CE00
C600
C300
C380
0000
1800
1800
0800
1000
ENDCHAR
STARTCHAR 0137
ENCODING 311
SWIDTH 600 0
DWIDTH 10 0
BBX 8 17 1 -5
BITMAP
C0
C0
C0
C3
C6
CC
D8
D8
F8
CC
C6
C3
00
18
18
08
10
ENDCHAR
STARTCHAR 0138
ENCODING 312
SWIDTH 600 0
DWIDTH 10 0
BBX 8 9 1 0
BITMAP
C3
C6
CC
D8
D8
F8
CC
C6
C3
ENDCHAR
STARTCHAR 0139
ENCODING 313
SWIDTH 600 0
DWIDTH 10 0
BBX 7 15 2 0
BITMAP
60
40
80
00
80
80
80
80
80
80
80
80
80
80
FE
ENDCHAR
STARTCHAR 013A
ENCODING 314
SWIDTH 600 0
DWIDTH 10 0
BBX 8 15 1 0
BITMAP
06
08
10
F8
18
18
18
18
18
18
18
18
18
18
FF
ENDCHAR
STARTCHAR 013B
ENCODING 315
SWIDTH 600 0
DWIDTH 10 0
BBX 7 16 2 -5
BITMAP
80
80
80
80
80
80
80
80
80
80
FE
00
10
10
10
30
ENDCHAR
STARTCHAR 013C
ENCODING 316
SWIDTH 600 0
DWIDTH 10 0
BBX 8 17 1 -5
BITMAP
F8
18
18
18
18
18
18
18
18
18
18
FF
00
18
18
08
10
ENDCHAR
STARTCHAR 013D
ENCODING 317
SWIDTH 600 0
DWIDTH 10 0
BBX 7 12 2 0
BITMAP
04
84
84
84
80
80
80
80
80
80
80
FE
ENDCHAR
STARTCHAR 013E
ENCODING 318
SWIDTH 600 0
DWIDTH 10 0
BBX 8 12 1 0
BITMAP
FB
1B
19
1A
18
18
18
18
18
18
18
FF
ENDCHAR
STARTCHAR 013F
ENCODING 319
SWIDTH 600 0
DWIDTH 10 0
BBX 7 11 2 0
BITMAP
80
80
80
80
8C
8C
80
80
80
80
FE
ENDCHAR
STARTCHAR 0140
ENCODING 320
SWIDTH 600 0
DWIDTH 10 0
BBX 10 12 1 0
BITMAP
F800
1800
1800
1800
1800
18C0
18C0
1800
1800
1800
1800
FF00
ENDCHAR
STARTCHAR 0141
ENCODING 321
SWIDTH 600 0
DWIDTH 10 0
BBX 9 11 0 0
BITMAP
2000
2000
2000
2000
2C00
3000
E000
2000
2000
2000
3F80
ENDCHAR
STARTCHAR 0142
ENCODING 322
SWIDTH 600 0
DWIDTH 10 0
BBX 8 12 1 0
BITMAP
F8
18
18
18
1A
1C
38
58
18
18
18
FF
ENDCHAR
STARTCHAR 0143
ENCODING 323
SWIDTH 600 0
DWIDTH 10 0
BBX 8 15 1 0
BITMAP
06
08
10
00
C3
E3
E3
F3
D3
DB
CB
CF
C7
C7
C3
ENDCHAR
STARTCHAR 0144
ENCODING 324
SWIDTH 600 0
DWIDTH 10 0
BBX 8 13 1 0
BITMAP
0C
08
18
00
DC
FE
C3
C3
C3
C3
C3
C3
C3
ENDCHAR
STARTCHAR 0145
ENCODING 325
SWIDTH 600 0
DWIDTH 10 0
BBX 8 16 1 -5
BITMAP
C3
E3
E3
F3
D3
DB
CB
CF
C7
C7
C3
00
18
18
08
10
ENDCHAR
STARTCHAR 0146
ENCODING 326
SWIDTH 600 0
DWIDTH 10 0
BBX 8 14 1 -5
BITMAP
DC
FE
C3
C3
C3
C3
C3
C3
C3
00
18
18
08
18
ENDCHAR
STARTCHAR 0147
ENCODING 327
SWIDTH 600 0
DWIDTH 10 0
BBX 8 15 1 0
BITMAP
66
3C
00
00
C3
E3
E3
F3
D3
DB
CB
CF
C7
C7
C3
ENDCHAR
STARTCHAR 0148
ENCODING 328
SWIDTH 600 0
DWIDTH 10 0
BBX 8 13 1 0
BITMAP
66
24
18
00
DC
FE
C3
C3
C3
C3
C3
C3
C3
ENDCHAR
STARTCHAR 0149
ENCODING 329
SWIDTH 600 0
DWIDTH 10 0
BBX 9 13 0 0
BITMAP
C000
C000
4000
8000
6E00
7F00
6180
6180
6180
6180
6180
6180
6180
ENDCHAR
STARTCHAR 014A
ENCODING 330
SWIDTH 600 0
DWIDTH 10 0
BBX 8 14 1 -3
BITMAP
C3
E3
E3
F3
D3
DB
CB
CF
C7
C7
C3
03
03
0E
ENDCHAR
STARTCHAR 014B
ENCODING 331
SWIDTH 600 0
DWIDTH 10 0
BBX 8 12 1 -3
BITMAP
DC
FE
C3
C3
C3
C3
C3
C3
C3
03
03
0E
ENDCHAR
STARTCHAR 014C
ENCODING 332
SWIDTH 600 0
DWIDTH 10 0
BBX 8 14 1 0
BITMAP
7E
00
18
7E
C3
C3
81
81
81
81
81
C3
E7
7E
ENDCHAR
STARTCHAR 014D
ENCODING 333
SWIDTH 600 0
DWIDTH 10 0
BBX 8 11 1 0
BITMAP
7E
00
18
7E
C3
C3
C3
C3
C3
66
3C
ENDCHAR
STARTCHAR 014E
ENCODING 334
SWIDTH 600 0
DWIDTH 10 0
BBX 8 15 1 0
BITMAP
46
3C
00
18
7E
C3
C3
81
81
81
81
81
C3
E7
7E
ENDCHAR
STARTCHAR 014F
ENCODING 335
SWIDTH 600 0
DWIDTH 10 0
BBX 8 12 1 0
BITMAP
66
3C
00
18
7E
C3
C3
C3
C3
C3
66
3C
ENDCHAR
STARTCHAR 0150
ENCODING 336
SWIDTH 600 0
DWIDTH 10 0
BBX 8 15 1 0
BITMAP
1B
36
08
18
7E
C3
C3
81
81
81
81
81
C3
E7
7E
ENDCHAR
STARTCHAR 0151
ENCODING 337
SWIDTH 600 0
DWIDTH 10 0
BBX 8 12 1 0
BITMAP
1F
34
08
18
7E
C3
C3
C3
C3
C3
66
3C
ENDCHAR
STARTCHAR 0152
ENCODING 338
SWIDTH 600 0
DWIDTH 10 0
BBX 9 11 1 0
BITMAP
7F80
CC00
8C00
8C00
8C00
8F00
8C00
8C00
8C00
EC00
7F80
ENDCHAR
STARTCHAR 0153
ENCODING 339
SWIDTH 600 0
DWIDTH 10 0
BBX 10 9 0 0
BITMAP
3300
7F80
CCC0
CCC0
CFC0
CC00
CCC0
4CC0
7B80
ENDCHAR
STARTCHAR 0154
ENCODING 340
SWIDTH 600 0
DWIDTH 10 0
BBX 9 15 1 0
BITMAP
0600
0C00
1000
0000
FF00
C300
C100
C100
C300
FE00
C300
C300
C300
C300
C180
ENDCHAR
STARTCHAR 0155
ENCODING 341
SWIDTH 600 0
DWIDTH 10 0
BBX 8 13 1 0
BITMAP
04
0C
08
10
E6
FF
31
31
30
30
30
30
FE
ENDCHAR
STARTCHAR 0156
ENCODING 342
SWIDTH 600 0
DWIDTH 10 0
BBX 9 16 1 -5
BITMAP
FF00
C300
C100
C100
C300
FE00
C300
C300
C300
C300
C180
0000
1800
1800
0800
1800
ENDCHAR
STARTCHAR 0157
ENCODING 343
SWIDTH 600 0
DWIDTH 10 0
BBX 8 14 1 -5
BITMAP
E6
FF
31
31
30
30
30
30
FE
00
10
10
10
10
ENDCHAR
STARTCHAR 0158
ENCODING 344
SWIDTH 600 0
DWIDTH 10 0
BBX 9 15 1 0
BITMAP
6600
3C00
0000
0000
FF00
C300
C100
C100
C300
FE00
C300
C300
C300
C300
C180
ENDCHAR
STARTCHAR 0159
ENCODING 345
SWIDTH 600 0
DWIDTH 10 0
BBX 8 13 1 0
BITMAP
62
34
18
00
E6
FF
31
31
30
30
30
30
FE
ENDCHAR
STARTCHAR 015A
ENCODING 346
SWIDTH 600 0
DWIDTH 10 0
BBX 8 15 1 0
BITMAP
06
08
10
18
7E
C3
C3
C0
78
1E
03
81
83
C3
7E
ENDCHAR
STARTCHAR 015B
ENCODING 347
SWIDTH 600 0
DWIDTH 10 0
BBX 8 13 1 0
BITMAP
0C
08
18
00
18
7E
C2
60
7C
07
C3
C3
7E
ENDCHAR
STARTCHAR 015C
ENCODING 348
SWIDTH 600 0
DWIDTH 10 0
BBX 8 15 1 0
BITMAP
18
24
42
18
7E
C3
C3
C0
78
1E
03
81
83
C3
7E
ENDCHAR
STARTCHAR 015D
ENCODING 349
SWIDTH 600 0
DWIDTH 10 0
BBX 8 13 1 0
BITMAP
18
3C
66
00
18
7E
C2
60
7C
07
C3
C3
7E
ENDCHAR
STARTCHAR 015E
ENCODING 350
SWIDTH 600 0
DWIDTH 10 0
BBX 8 15 1 -3
BITMAP
18
7E
C3
C3
C0
78
1E
03
81
83
C3
7E
18
04
3C
ENDCHAR
STARTCHAR 015F
ENCODING 351
SWIDTH 600 0
DWIDTH 10 0
BBX 8 12 1 -3
BITMAP
18
7E
C2
60
7C
07
C3
C3
7E
18
04
3C
ENDCHAR
STARTCHAR 0160
ENCODING 352
SWIDTH 600 0
DWIDTH 10 0
BBX 8 15 1 0
BITMAP
66
3C
00
18
7E
C3
C3
C0
78
1E
03
81
83
C3
7E
ENDCHAR
STARTCHAR 0161
ENCODING 353
SWIDTH 600 0
DWIDTH 10 0
BBX 8 13 1 0
BITMAP
66
24
18
00
18
7E
C2
60
7C
07
C3
C3
7E
ENDCHAR
STARTCHAR 0162
ENCODING 354
SWIDTH 600 0
DWIDTH 10 0
BBX 8 14 1 -3
BITMAP
FF
18
18
18
18
18
18
18
18
18
18
18
04
3C
ENDCHAR
STARTCHAR 0163
ENCODING 355
SWIDTH 600 0
DWIDTH 10 0
BBX 8 14 1 -3
BITMAP
10
10
FF
FF
30
30
30
30
30
39
1F
0C
02
1E
ENDCHAR
STARTCHAR 0164
ENCODING 356
SWIDTH 600 0
DWIDTH 10 0
BBX 8 15 1 0
BITMAP
66
3C
00
00
FF
18
18
18
18
18
18
18
18
18
18
ENDCHAR
STARTCHAR 0165
ENCODING 357
SWIDTH 600 0
DWIDTH 10 0
BBX 8 13 1 0
BITMAP
06
06
12
14
FF
FF
30
30
30
30
30
39
1F
ENDCHAR
STARTCHAR 0166
ENCODING 358
SWIDTH 600 0
DWIDTH 10 0
BBX 8 11 1 0
BITMAP
FF
18
18
18
18
7E
18
18
18
18
18
ENDCHAR
STARTCHAR 0167
ENCODING 359
SWIDTH 600 0
DWIDTH 10 0
BBX 8 11 1 0
BITMAP
10
10
FF
FF
30
30
FE
30
30
39
1F
ENDCHAR
STARTCHAR 0168
ENCODING 360
SWIDTH 600 0
DWIDTH 10 0
BBX 8 15 1 0
BITMAP
32
7E
00
00
C3
C3
C3
C3
C3
C3
C3
C3
C3
66
7E
ENDCHAR
STARTCHAR 0169
ENCODING 361
SWIDTH 600 0
DWIDTH 10 0
BBX 9 12 1 0
BITMAP
7200
4C00
0000
C200
C200
C200
C200
C200
C200
C200
E600
7B80
ENDCHAR
STARTCHAR 016A
ENCODING 362
SWIDTH 600 0
DWIDTH 10 0
BBX 8 14 1 0
BITMAP
7E
00
00
C3
C3
C3
C3
C3
C3
C3
C3
C3
66
7E
ENDCHAR
STARTCHAR 016B
ENCODING 363
SWIDTH 600 0
DWIDTH 10 0
BBX 9 11 1 0
BITMAP
7C00
0000
C200
C200
C200
C200
C200
C200
C200
E600
7B80
ENDCHAR
STARTCHAR 016C
ENCODING 364
SWIDTH 600 0
DWIDTH 10 0
BBX 8 15 1 0
BITMAP
46
3C
00
00
C3
C3
C3
C3
C3
C3
C3
C3
C3
66
7E
ENDCHAR
STARTCHAR 016D
ENCODING 365
SWIDTH 600 0
DWIDTH 10 0
BBX 9 12 1 0
BITMAP
4600
3C00
0000
C200
C200
C200
C200
C200
C200
C200
E600
7B80
ENDCHAR
STARTCHAR 016E
ENCODING 366
SWIDTH 600 0
DWIDTH 10 0
BBX 8 16 1 0
BITMAP
18
24
24
18
00
C3
C3
C3
C3
C3
C3
C3
C3
C3
66
7E
ENDCHAR
STARTCHAR 016F
ENCODING 367
SWIDTH 600 0
DWIDTH 10 0
BBX 9 13 1 0
BITMAP
3800
2400
3800
0000
C200
C200
C200
C200
C200
C200
C200
E600
7B80
ENDCHAR
STARTCHAR 0170
ENCODING 368
SWIDTH 600 0
DWIDTH 10 0
BBX 8 15 1 0
BITMAP
1B
36
08
00
C3
C3
C3
C3
C3
C3
C3
C3
C3
66
7E
ENDCHAR
STARTCHAR 0171
ENCODING 369
SWIDTH 600 0
DWIDTH 10 0
BBX 9 12 1 0
BITMAP
1F00
2C00
0000
C200
C200
C200
C200
C200
C200
C200
E600
7B80
ENDCHAR
STARTCHAR 0172
ENCODING 370
SWIDTH 600 0
DWIDTH 10 0
BBX 8 13 1 -2
BITMAP
C3
C3
C3
C3
C3
C3
C3
C3
C3
66
7E
08
1E
ENDCHAR
STARTCHAR 0173
ENCODING 371
SWIDTH 600 0
DWIDTH 10 0
BBX 10 11 1 -2
BITMAP
C200
C200
C200
C200
C200
C200
C200
E600
7B80
0100
03C0
ENDCHAR
STARTCHAR 0174
ENCODING 372
SWIDTH 600 0
DWIDTH 10 0
BBX 10 15 0 0
BITMAP
0C00
1200
2100
0000
CCC0
CCC0
CCC0
4C80
4E80
7E80
7380
7380
7380
3300
3300
ENDCHAR
STARTCHAR 0175
ENCODING 373
SWIDTH 600 0
DWIDTH 10 0
BBX 10 13 0 0
BITMAP
0C00
1E00
1300
2000
8C40
CCC0
CCC0
4E80
5A80
7280
7380
3300
3300
ENDCHAR
STARTCHAR 0176
ENCODING 374
SWIDTH 600 0
DWIDTH 10 0
BBX 10 15 0 0
BITMAP
0C00
1200
2100
8040
6180
6180
3300
3300
1E00
1E00
0C00
0C00
0C00
0C00
0C00
ENDCHAR
STARTCHAR 0177
ENCODING 375
SWIDTH 600 0
DWIDTH 10 0
BBX 8 16 1 -3
BITMAP
18
1C
26
40
C3
C3
42
66
66
34
3C
18
18
18
30
E0
ENDCHAR
STARTCHAR 0178
ENCODING 376
SWIDTH 600 0
DWIDTH 10 0
BBX 10 14 0 0
BITMAP
3300
0000
8040
6180
6180
3300
3300
1E00
1E00
0C00
0C00
0C00
0C00
0C00
ENDCHAR
STARTCHAR 0179
ENCODING 377
SWIDTH 600 0
DWIDTH 10 0
BBX 8 15 1 0
BITMAP
06
08
10
00
FF
06
06
0C
18
18
30
70
60
C0
FF
ENDCHAR
STARTCHAR 017A
ENCODING 378
SWIDTH 600 0
DWIDTH 10 0
BBX 6 13 2 0
BITMAP
18
10
30
00
FC
FC
18
18
30
20
60
C0
FC
ENDCHAR
STARTCHAR 017B
ENCODING 379
SWIDTH 600 0
DWIDTH 10 0
BBX 8 14 1 0
BITMAP
18
00
00
FF
06
06
0C
18
18
30
70
60
C0
FF
ENDCHAR
STARTCHAR 017C
ENCODING 380
SWIDTH 600 0
DWIDTH 10 0
BBX 6 12 2 0
BITMAP
30
30
00
FC
FC
18
18
30
20
60
C0
FC
ENDCHAR
STARTCHAR 017D
ENCODING 381
SWIDTH 600 0
DWIDTH 10 0
BBX 8 15 1 0
BITMAP
66
3C
00
00
FF
06
06
0C
18
18
30
70
60
C0
FF
ENDCHAR
STARTCHAR 017E
ENCODING 382
SWIDTH 600 0
DWIDTH 10 0
BBX 6 13 2 0
BITMAP
CC
48
30
00
FC
FC
18
18
30
20
60
C0
FC
ENDCHAR
STARTCHAR 017F
ENCODING 383
SWIDTH 600 0
DWIDTH 10 0
BBX 8 12 1 0
BITMAP
0F
18
10
F0
F0
10
10
10
10
10
10
FF
ENDCHAR
STARTCHAR 018F
ENCODING 399
SWIDTH 600 0
DWIDTH 10 0
BBX 8 12 1 0
BITMAP
18
7E
C3
C3
01
01
FF
81
C3
C3
E7
7C
ENDCHAR
STARTCHAR 0191
ENCODING 401
SWIDTH 600 0
DWIDTH 10 0
BBX 10 14 -1 -3
BITMAP
3FC0
3000
3000
3000
3000
3F80
3000
3000
3000
3000
3000
3000
3000
F000
ENDCHAR
STARTCHAR 0192
ENCODING 402
SWIDTH 600 0
DWIDTH 10 0
BBX 7 15 1 -3
BITMAP
0E
08
18
3E
3E
18
18
10
10
30
30
30
30
30
E0
ENDCHAR
STARTCHAR 0197
ENCODING 407
SWIDTH 600 0
DWIDTH 10 0
BBX 6 11 2 0
BITMAP
FC
30
30
30
30
FC
30
30
30
30
FC
ENDCHAR
STARTCHAR 019D
ENCODING 413
SWIDTH 600 0
DWIDTH 10 0
BBX 10 14 -1 -3
BITMAP
30C0
38C0
38C0
3CC0
34C0
36C0
32C0
33C0
31C0
31C0
30C0
3000
3000
E000
ENDCHAR
STARTCHAR 01A0
ENCODING 416
SWIDTH 600 0
DWIDTH 10 0
BBX 9 13 1 0
BITMAP
0080
1980
7F00
C300
C300
8100
8100
8100
8100
8100
C300
E700
7E00
ENDCHAR
STARTCHAR 01A1
ENCODING 417
SWIDTH 600 0
DWIDTH 10 0
BBX 9 10 1 0
BITMAP
0080
1980
7F00
C300
C300
C300
C300
C300
6600
3C00
ENDCHAR
STARTCHAR 01AF
ENCODING 431
SWIDTH 600 0
DWIDTH 10 0
BBX 10 14 1 0
BITMAP
00C0
0080
0180
C300
C300
C300
C300
C300
C300
C300
C300
C300
6600
7E00
ENDCHAR
STARTCHAR 01B0
ENCODING 432
SWIDTH 600 0
DWIDTH 10 0
BBX 9 11 1 0
BITMAP
0080
0080
C300
C200
C200
C200
C200
C200
C200
E600
7B80
ENDCHAR
STARTCHAR 01C4
ENCODING 452
SWIDTH 600 0
DWIDTH 10 0
BBX 10 15 0 0
BITMAP
0280
0380
0000
0000
FF80
C880
C980
CD80
CD00
CD00
CF00
CA00
CA00
DE00
F7C0
ENDCHAR
STARTCHAR 01C5
ENCODING 453
SWIDTH 600 0
DWIDTH 10 0
BBX 10 12 0 0
BITMAP
02C0
FB80
C800
CB80
CF80
CC80
CD80
CD00
C900
CB00
DA00
F3C0
ENDCHAR
STARTCHAR 01C6
ENCODING 454
SWIDTH 600 0
DWIDTH 10 0
BBX 10 12 0 0
BITMAP
0AC0
0980
0800
6BC0
FBC0
8880
8880
8900
8900
8B00
DA00
7BC0
ENDCHAR
STARTCHAR 01C7
ENCODING 455
SWIDTH 600 0
DWIDTH 10 0
BBX 8 14 1 -3
BITMAP
C3
C3
C3
C3
C3
C3
C3
C3
C3
C3
FB
03
63
3E
ENDCHAR
STARTCHAR 01C8
ENCODING 456
SWIDTH 600 0
DWIDTH 10 0
BBX 8 15 1 -3
BITMAP
03
C3
C0
C3
C3
C3
C3
C3
C3
C3
C3
FF
03
22
1E
ENDCHAR
STARTCHAR 01C9
ENCODING 457
SWIDTH 600 0
DWIDTH 10 0
BBX 8 15 1 -3
BITMAP
C7
C7
C0
CE
CE
C2
C2
C2
C2
C2
C2
C2
02
26
1E
ENDCHAR
STARTCHAR 01CA
ENCODING 458
SWIDTH 600 0
DWIDTH 10 0
BBX 8 14 1 -3
BITMAP
CB
CB
CB
EB
EB
EB
EB
DB
DB
DB
CB
03
23
3E
ENDCHAR
STARTCHAR 01CB
ENCODING 459
SWIDTH 600 0
DWIDTH 10 0
BBX 8 15 1 -3
BITMAP
03
CB
C8
EB
EB
EB
EB
DB
DB
DB
DB
CB
03
13
1E
ENDCHAR
STARTCHAR 01CC
ENCODING 460
SWIDTH 600 0
DWIDTH 10 0
BBX 8 15 1 -3
BITMAP
03
03
00
B1
F9
99
99
99
99
99
99
99
01
13
0E
ENDCHAR
STARTCHAR 01CD
ENCODING 461
SWIDTH 600 0
DWIDTH 10 0
BBX 10 15 0 0
BITMAP
3300
1E00
0000
0000
0C00
1E00
1E00
1200
3300
3300
2100
7F80
6180
4080
C0C0
ENDCHAR
STARTCHAR 01CE
ENCODING 462
SWIDTH 600 0
DWIDTH 10 0
BBX 8 13 1 0
BITMAP
46
2C
18
00
38
7E
C2
02
3E
C2
C6
C6
7B
ENDCHAR
STARTCHAR 01CF
ENCODING 463
SWIDTH 600 0
DWIDTH 10 0
BBX 6 15 2 0
BITMAP
CC
78
00
00
FC
30
30
30
30
30
30
30
30
30
FC
ENDCHAR
STARTCHAR 01D0
ENCODING 464
SWIDTH 600 0
DWIDTH 10 0
BBX 7 13 2 0
BITMAP
C4
68
38
00
F0
F0
10
10
10
10
10
10
FE
ENDCHAR
STARTCHAR 01D1
ENCODING 465
SWIDTH 600 0
DWIDTH 10 0
BBX 8 15 1 0
BITMAP
66
3C
00
18
7E
C3
C3
81
81
81
81
81
C3
E7
7E
ENDCHAR
STARTCHAR 01D2
ENCODING 466
SWIDTH 600 0
DWIDTH 10 0
BBX 8 13 1 0
BITMAP
66
24
18
00
18
7E
C3
C3
C3
C3
C3
66
3C
ENDCHAR
STARTCHAR 01D3
ENCODING 467
SWIDTH 600 0
DWIDTH 10 0
BBX 8 15 1 0
BITMAP
66
3C
00
00
C3
C3
C3
C3
C3
C3
C3
C3
C3
66
7E
ENDCHAR
STARTCHAR 01D4
ENCODING 468
SWIDTH 600 0
DWIDTH 10 0
BBX 9 13 1 0
BITMAP
4600
2C00
1800
0000
C200
C200
C200
C200
C200
C200
C200
E600
7B80
ENDCHAR
STARTCHAR 01D5
ENCODING 469
SWIDTH 600 0
DWIDTH 10 0
BBX 8 17 1 0
BITMAP
7E
00
66
66
00
00
C3
C3
C3
C3
C3
C3
C3
C3
C3
66
7E
ENDCHAR
STARTCHAR 01D6
ENCODING 470
SWIDTH 600 0
DWIDTH 10 0
BBX 9 14 1 0
BITMAP
7E00
0000
6600
6600
0000
C200
C200
C200
C200
C200
C200
C200
E600
7B80
ENDCHAR
STARTCHAR 01D7
ENCODING 471
SWIDTH 600 0
DWIDTH 10 0
BBX 8 18 1 0
BITMAP
06
0C
18
66
66
00
00
C3
C3
C3
C3
C3
C3
C3
C3
C3
66
7E
ENDCHAR
STARTCHAR 01D8
ENCODING 472
SWIDTH 600 0
DWIDTH 10 0
BBX 9 15 1 0
BITMAP
0E00
1800
0000
6600
6600
0000
C200
C200
C200
C200
C200
C200
C200
E600
7B80
ENDCHAR
STARTCHAR 01D9
ENCODING 473
SWIDTH 600 0
DWIDTH 10 0
BBX 8 17 1 0
BITMAP
66
18
66
66
00
00
C3
C3
C3
C3
C3
C3
C3
C3
C3
66
7E
ENDCHAR
STARTCHAR 01DA
ENCODING 474
SWIDTH 600 0
DWIDTH 10 0
BBX 9 15 1 0
BITMAP
6600
3800
0000
6600
6600
0000
C200
C200
C200
C200
C200
C200
C200
E600
7B80
ENDCHAR
STARTCHAR 01DB
ENCODING 475
SWIDTH 600 0
DWIDTH 10 0
BBX 8 18 1 0
BITMAP
60
30
18
66
66
00
00
C3
C3
C3
C3
C3
C3
C3
C3
C3
66
7E
ENDCHAR
STARTCHAR 01DC
ENCODING 476
SWIDTH 600 0
DWIDTH 10 0
BBX 9 15 1 0
BITMAP
7000
1000
0000
6600
6600
0000
C200
C200
C200
C200
C200
C200
C200
E600
7B80
ENDCHAR
STARTCHAR 01E4
ENCODING 484
SWIDTH 600 0
DWIDTH 10 0
BBX 9 12 1 0
BITMAP
1800
7E00
C300
C300
8100
8000
8F00
8100
8F80
C300
E700
7D00
ENDCHAR
STARTCHAR 01E5
ENCODING 485
SWIDTH 600 0
DWIDTH 10 0
BBX 10 13 0 -3
BITMAP
00C0
0F80
3300
2180
2180
3300
3E00
6000
7F00
3F80
FFC0
4080
7F80
ENDCHAR
STARTCHAR 01E6
ENCODING 486
SWIDTH 600 0
DWIDTH 10 0
BBX 8 15 1 0
BITMAP
66
3C
00
18
7E
C3
C3
81
80
8F
81
81
C3
E7
7D
ENDCHAR
STARTCHAR 01E7
ENCODING 487
SWIDTH 600 0
DWIDTH 10 0
BBX 9 16 1 -3
BITMAP
6600
2400
1880
0100
1F00
6600
4300
4300
6600
7C00
C000
FE00
7F00
8180
8100
FF00
ENDCHAR
STARTCHAR 01EA
ENCODING 490
SWIDTH 600 0
DWIDTH 10 0
BBX 8 14 1 -2
BITMAP
18
7E
C3
C3
81
81
81
81
81
C3
E7
7E
08
1E
ENDCHAR
STARTCHAR 01EB
ENCODING 491
SWIDTH 600 0
DWIDTH 10 0
BBX 8 11 1 -2
BITMAP
18
7E
C3
C3
C3
C3
C3
66
3C
18
1E
ENDCHAR
STARTCHAR 01FA
ENCODING 506
SWIDTH 600 0
DWIDTH 10 0
BBX 10 18 0 0
BITMAP
0600
0400
0C00
1200
1200
0C00
0000
0C00
1E00
1E00
1200
3300
3300
2100
7F80
6180
4080
C0C0
ENDCHAR
STARTCHAR 01FB
ENCODING 507
SWIDTH 600 0
DWIDTH 10 0
BBX 8 16 1 0
BITMAP
0C
08
10
38
24
38
00
38
7E
C2
02
3E
C2
C6
C6
7B
ENDCHAR
STARTCHAR 01FC
ENCODING 508
SWIDTH 600 0
DWIDTH 10 0
BBX 10 15 0 0
BITMAP
0100
0200
0400
0000
1FC0
1E00
1600
3600
3780
2780
6600
7E00
4600
C600
C7C0
ENDCHAR
STARTCHAR 01FD
ENCODING 509
SWIDTH 600 0
DWIDTH 10 0
BBX 10 13 0 0
BITMAP
0600
0400
0C00
0000
3300
7F80
4CC0
0CC0
7FC0
4C00
CCC0
CCC0
7780
ENDCHAR
STARTCHAR 01FE
ENCODING 510
SWIDTH 600 0
DWIDTH 10 0
BBX 10 16 0 -1
BITMAP
0300
0400
08C0
0C80
3F00
6180
6380
4280
4480
4880
4880
5080
7180
7380
7F00
C000
ENDCHAR
STARTCHAR 01FF
ENCODING 511
SWIDTH 600 0
DWIDTH 10 0
BBX 8 14 1 -1
BITMAP
0C
08
18
01
1A
7E
C7
CB
CB
D3
E3
66
7C
80
ENDCHAR
STARTCHAR 0200
ENCODING 512
SWIDTH 600 0
DWIDTH 10 0
BBX 10 15 0 0
BITMAP
6C00
3400
1200
0000
0C00
1E00
1E00
1200
3300
3300
2100
7F80
6180
4080
C0C0
ENDCHAR
STARTCHAR 0201
ENCODING 513
SWIDTH 600 0
DWIDTH 10 0
BBX 8 12 1 0
BITMAP
D8
2C
00
38
7E
C2
02
3E
C2
C6
C6
7B
ENDCHAR
STARTCHAR 0202
ENCODING 514
SWIDTH 600 0
DWIDTH 10 0
BBX 10 15 0 0
BITMAP
1E00
3100
0000
0000
0C00
1E00
1E00
1200
3300
3300
2100
7F80
6180
4080
C0C0
ENDCHAR
STARTCHAR 0203
ENCODING 515
SWIDTH 600 0
DWIDTH 10 0
BBX 8 12 1 0
BITMAP
7C
42
00
38
7E
C2
02
3E
C2
C6
C6
7B
ENDCHAR
STARTCHAR 0204
ENCODING 516
SWIDTH 600 0
DWIDTH 10 0
BBX 8 15 1 0
BITMAP
D8
2C
34
00
FF
C0
C0
C0
FE
FE
C0
C0
C0
C0
FF
ENDCHAR
STARTCHAR 0205
ENCODING 517
SWIDTH 600 0
DWIDTH 10 0
BBX 8 12 1 0
BITMAP
D8
2C
10
18
7E
C3
C3
FF
C0
C3
62
3C
ENDCHAR
STARTCHAR 0206
ENCODING 518
SWIDTH 600 0
DWIDTH 10 0
BBX 8 15 1 0
BITMAP
3C
62
00
00
FF
C0
C0
C0
FE
FE
C0
C0
C0
C0
FF
ENDCHAR
STARTCHAR 0207
ENCODING 519
SWIDTH 600 0
DWIDTH 10 0
BBX 8 12 1 0
BITMAP
3E
42
00
18
7E
C3
C3
FF
C0
C3
62
3C
ENDCHAR
STARTCHAR 0208
ENCODING 520
SWIDTH 600 0
DWIDTH 10 0
BBX 7 15 1 0
BITMAP
D8
68
24
00
7E
18
18
18
18
18
18
18
18
18
7E
ENDCHAR
STARTCHAR 0209
ENCODING 521
SWIDTH 600 0
DWIDTH 10 0
BBX 7 12 2 0
BITMAP
F0
68
00
F0
F0
10
10
10
10
10
10
FE
ENDCHAR
STARTCHAR 020A
ENCODING 522
SWIDTH 600 0
DWIDTH 10 0
BBX 6 15 2 0
BITMAP
78
C4
00
00
FC
30
30
30
30
30
30
30
30
30
FC
ENDCHAR
STARTCHAR 020B
ENCODING 523
SWIDTH 600 0
DWIDTH 10 0
BBX 7 12 2 0
BITMAP
7C
C4
00
F0
F0
10
10
10
10
10
10
FE
ENDCHAR
STARTCHAR 020C
ENCODING 524
SWIDTH 600 0
DWIDTH 10 0
BBX 8 15 1 0
BITMAP
D8
68
24
18
7E
C3
C3
81
81
81
81
81
C3
E7
7E
ENDCHAR
STARTCHAR 020D
ENCODING 525
SWIDTH 600 0
DWIDTH 10 0
BBX 8 12 1 0
BITMAP
D8
2C
00
18
7E
C3
C3
C3
C3
C3
66
3C
ENDCHAR
STARTCHAR 020E
ENCODING 526
SWIDTH 600 0
DWIDTH 10 0
BBX 8 15 1 0
BITMAP
3C
62
00
18
7E
C3
C3
81
81
81
81
81
C3
E7
7E
ENDCHAR
STARTCHAR 020F
ENCODING 527
SWIDTH 600 0
DWIDTH 10 0
BBX 8 12 1 0
BITMAP
3C
42
00
18
7E
C3
C3
C3
C3
C3
66
3C
ENDCHAR
STARTCHAR 0210
ENCODING 528
SWIDTH 600 0
DWIDTH 10 0
BBX 9 15 1 0
BITMAP
D800
6800
2400
0000
FF00
C300
C100
C100
C300
FE00
C300
C300
C300
C300
C180
ENDCHAR
STARTCHAR 0211
ENCODING 529
SWIDTH 600 0
DWIDTH 10 0
BBX 8 12 1 0
BITMAP
78
34
00
E6
FF
31
31
30
30
30
30
FE
ENDCHAR
STARTCHAR 0212
ENCODING 530
SWIDTH 600 0
DWIDTH 10 0
BBX 9 15 1 0
BITMAP
3C00
6200
0000
0000
FF00
C300
C100
C100
C300
FE00
C300
C300
C300
C300
C180
ENDCHAR
STARTCHAR 0213
ENCODING 531
SWIDTH 600 0
DWIDTH 10 0
BBX 8 12 1 0
BITMAP
3E
42
00
E6
FF
31
31
30
30
30
30
FE
ENDCHAR
STARTCHAR 0214
ENCODING 532
SWIDTH 600 0
DWIDTH 10 0
BBX 8 15 1 0
BITMAP
D8
68
24
00
C3
C3
C3
C3
C3
C3
C3
C3
C3
66
7E
ENDCHAR
STARTCHAR 0215
ENCODING 533
SWIDTH 600 0
DWIDTH 10 0
BBX 9 12 1 0
BITMAP
D800
2C00
0000
C200
C200
C200
C200
C200
C200
C200
E600
7B80
ENDCHAR
STARTCHAR 0216
ENCODING 534
SWIDTH 600 0
DWIDTH 10 0
BBX 8 15 1 0
BITMAP
3C
62
00
00
C3
C3
C3
C3
C3
C3
C3
C3
C3
66
7E
ENDCHAR
STARTCHAR 0217
ENCODING 535
SWIDTH 600 0
DWIDTH 10 0
BBX 9 12 1 0
BITMAP
7C00
4200
0000
C200
C200
C200
C200
C200
C200
C200
E600
7B80
ENDCHAR
STARTCHAR 0218
ENCODING 536
SWIDTH 600 0
DWIDTH 10 0
BBX 8 17 1 -5
BITMAP
18
7E
C3
C3
C0
78
1E
03
81
83
C3
7E
00
18
18
08
10
ENDCHAR
STARTCHAR 0219
ENCODING 537
SWIDTH 600 0
DWIDTH 10 0
BBX 8 14 1 -5
BITMAP
18
7E
C2
60
7C
07
C3
C3
7E
00
18
18
08
10
ENDCHAR
STARTCHAR 021A
ENCODING 538
SWIDTH 600 0
DWIDTH 10 0
BBX 8 16 1 -5
BITMAP
FF
18
18
18
18
18
18
18
18
18
18
00
18
18
08
10
ENDCHAR
STARTCHAR 021B
ENCODING 539
SWIDTH 600 0
DWIDTH 10 0
BBX 8 16 1 -5
BITMAP
10
10
FF
FF
30
30
30
30
30
39
1F
00
0C
0C
04
08
ENDCHAR
STARTCHAR 022A
ENCODING 554
SWIDTH 600 0
DWIDTH 10 0
BBX 8 17 1 0
BITMAP
7E
00
66
66
00
18
7E
C3
C3
81
81
81
81
81
C3
E7
7E
ENDCHAR
STARTCHAR 022B
ENCODING 555
SWIDTH 600 0
DWIDTH 10 0
BBX 8 14 1 0
BITMAP
7E
00
66
66
00
18
7E
C3
C3
C3
C3
C3
66
3C
ENDCHAR
STARTCHAR 022C
ENCODING 556
SWIDTH 600 0
DWIDTH 10 0
BBX 8 16 1 0
BITMAP
7E
22
7E
00
18
7E
C3
C3
81
81
81
81
81
C3
E7
7E
ENDCHAR
STARTCHAR 022D
ENCODING 557
SWIDTH 600 0
DWIDTH 10 0
BBX 8 14 1 0
BITMAP
7E
00
7A
4C
00
18
7E
C3
C3
C3
C3
C3
66
3C
ENDCHAR
STARTCHAR 0230
ENCODING 560
SWIDTH 600 0
DWIDTH 10 0
BBX 8 17 1 0
BITMAP
3E
00
18
18
00
18
7E
C3
C3
81
81
81
81
81
C3
E7
7E
ENDCHAR
STARTCHAR 0231
ENCODING 561
SWIDTH 600 0
DWIDTH 10 0
BBX 8 14 1 0
BITMAP
3E
00
18
18
00
18
7E
C3
C3
C3
C3
C3
66
3C
ENDCHAR
STARTCHAR 0232
ENCODING 562
SWIDTH 600 0
DWIDTH 10 0
BBX 10 14 0 0
BITMAP
3F00
0000
8040
6180
6180
3300
3300
1E00
1E00
0C00
0C00
0C00
0C00
0C00
ENDCHAR
STARTCHAR 0233
ENCODING 563
SWIDTH 600 0
DWIDTH 10 0
BBX 8 14 1 -3
BITMAP
3E
00
C3
C3
42
66
66
34
3C
18
18
18
30
E0
ENDCHAR
STARTCHAR 0237
ENCODING 567
SWIDTH 600 0
DWIDTH 10 0
BBX 4 12 2 -3
BITMAP
F0
F0
10
10
10
10
10
10
10
10
B0
E0
ENDCHAR
STARTCHAR 0244
ENCODING 580
SWIDTH 600 0
DWIDTH 10 0
BBX 10 11 0 0
BITMAP
6180
6180
6180
6180
FFC0
6180
6180
6180
6180
3300
3F00
ENDCHAR
STARTCHAR 0259
ENCODING 601
SWIDTH 600 0
DWIDTH 10 0
BBX 8 9 1 0
BITMAP
18
7E
C3
C3
FF
FF
C3
66
3C
ENDCHAR
STARTCHAR 0268
ENCODING 616
SWIDTH 600 0
DWIDTH 10 0
BBX 7 12 2 0
BITMAP
10
10
00
F0
F0
10
10
7C
10
10
10
FE
ENDCHAR
STARTCHAR 026A
ENCODING 618
SWIDTH 600 0
DWIDTH 10 0
BBX 6 9 2 0
BITMAP
FC
FC
30
30
30
30
30
30
FC
ENDCHAR
STARTCHAR 0272
ENCODING 626
SWIDTH 600 0
DWIDTH 10 0
BBX 10 12 -1 -3
BITMAP
3700
3F80
30C0
30C0
30C0
30C0
30C0
30C0
30C0
3000
3000
F000
ENDCHAR
STARTCHAR 0289
ENCODING 649
SWIDTH 600 0
DWIDTH 10 0
BBX 10 9 0 0
BITMAP
6100
6100
6100
FFC0
FFC0
6100
6100
7300
3DC0
ENDCHAR
STARTCHAR 02B9
ENCODING 697
SWIDTH 600 0
DWIDTH 10 0
BBX 2 2 4 10
BITMAP
C0
80
ENDCHAR
STARTCHAR 02BA
ENCODING 698
SWIDTH 600 0
DWIDTH 10 0
BBX 4 2 3 10
BITMAP
D0
B0
ENDCHAR
STARTCHAR 02BC
ENCODING 700
SWIDTH 600 0
DWIDTH 10 0
BBX 2 4 4 9
BITMAP
C0
C0
40
80
ENDCHAR
STARTCHAR 02C6
ENCODING 710
SWIDTH 600 0
DWIDTH 10 0
BBX 6 3 2 10
BITMAP
30
78
CC
ENDCHAR
STARTCHAR 02C7
ENCODING 711
SWIDTH 600 0
DWIDTH 10 0
BBX 6 3 2 10
BITMAP
CC
48
30
ENDCHAR
STARTCHAR 02C9
ENCODING 713
SWIDTH 600 0
DWIDTH 10 0
BBX 6 1 2 11
BITMAP
FC
ENDCHAR
STARTCHAR 02CD
ENCODING 717
SWIDTH 600 0
DWIDTH 10 0
BBX 6 1 2 -3
BITMAP
FC
ENDCHAR
STARTCHAR 02D8
ENCODING 728
SWIDTH 600 0
DWIDTH 10 0
BBX 6 2 2 10
BITMAP
CC
78
ENDCHAR
STARTCHAR 02D9
ENCODING 729
SWIDTH 600 0
DWIDTH 10 0
BBX 2 2 4 10
BITMAP
C0
C0
ENDCHAR
STARTCHAR 02DA
ENCODING 730
SWIDTH 600 0
DWIDTH 10 0
BBX 4 3 3 10
BITMAP
60
90
70
ENDCHAR
STARTCHAR 02DB
ENCODING 731
SWIDTH 600 0
DWIDTH 10 0
BBX 4 2 3 -2
BITMAP
40
F0
ENDCHAR
STARTCHAR 02DC
ENCODING 732
SWIDTH 600 0
DWIDTH 10 0
BBX 6 2 2 10
BITMAP
F4
98
ENDCHAR
STARTCHAR 02DD
ENCODING 733
SWIDTH 600 0
DWIDTH 10 0
BBX 6 2 2 10
BITMAP
6C
D0
ENDCHAR
STARTCHAR 0300
ENCODING 768
SWIDTH 0 0
DWIDTH 0 0
BBX 2 3 4 10
BITMAP
80
C0
40
ENDCHAR
STARTCHAR 0301
ENCODING 769
SWIDTH 0 0
DWIDTH 0 0
BBX 2 3 4 10
BITMAP
40
C0
80
ENDCHAR
STARTCHAR 0302
ENCODING 770
SWIDTH 0 0
DWIDTH 0 0
BBX 6 3 2 10
BITMAP
30
78
CC
ENDCHAR
STARTCHAR 0303
ENCODING 771
SWIDTH 0 0
DWIDTH 0 0
BBX 6 2 2 10
BITMAP
F4
98
ENDCHAR
STARTCHAR 0304
ENCODING 772
SWIDTH 0 0
DWIDTH 0 0
BBX 6 1 2 10
BITMAP
FC
ENDCHAR
STARTCHAR 0306
ENCODING 774
SWIDTH 0 0
DWIDTH 0 0
BBX 6 2 2 10
BITMAP
CC
78
ENDCHAR
STARTCHAR 0307
ENCODING 775
SWIDTH 0 0
DWIDTH 0 0
BBX 2 2 4 10
BITMAP
C0
C0
ENDCHAR
STARTCHAR 0308
ENCODING 776
SWIDTH 0 0
DWIDTH 0 0
BBX 6 2 2 10
BITMAP
CC
CC
ENDCHAR
STARTCHAR 0309
ENCODING 777
SWIDTH 0 0
DWIDTH 0 0
BBX 4 4 3 9
BITMAP
E0
30
20
40
ENDCHAR
STARTCHAR 030A
ENCODING 778
SWIDTH 0 0
DWIDTH 0 0
BBX 4 3 3 10
BITMAP
60
90
70
ENDCHAR
STARTCHAR 030B
ENCODING 779
SWIDTH 0 0
DWIDTH 0 0
BBX 6 2 2 10
BITMAP
6C
D0
ENDCHAR
STARTCHAR 030C
ENCODING 780
SWIDTH 0 0
DWIDTH 0 0
BBX 6 3 2 10
BITMAP
CC
48
30
ENDCHAR
STARTCHAR 030F
ENCODING 783
SWIDTH 0 0
DWIDTH 0 0
BBX 6 2 2 10
BITMAP
D8
2C
ENDCHAR
STARTCHAR 0311
ENCODING 785
SWIDTH 0 0
DWIDTH 0 0
BBX 6 2 2 10
BITMAP
78
84
ENDCHAR
STARTCHAR 0312
ENCODING 786
SWIDTH 0 0
DWIDTH 0 0
BBX 2 4 4 10
BITMAP
40
80
C0
C0
ENDCHAR
STARTCHAR 0313
ENCODING 787
SWIDTH 0 0
DWIDTH 0 0
BBX 2 4 4 10
BITMAP
C0
C0
40
80
ENDCHAR
STARTCHAR 031B
ENCODING 795
SWIDTH 0 0
DWIDTH 0 0
BBX 4 3 3 8
BITMAP
30
20
E0
ENDCHAR
STARTCHAR 0323
ENCODING 803
SWIDTH 0 0
DWIDTH 0 0
BBX 2 2 4 -3
BITMAP
C0
C0
ENDCHAR
STARTCHAR 0324
ENCODING 804
SWIDTH 0 0
DWIDTH 0 0
BBX 6 2 2 -3
BITMAP
CC
CC
ENDCHAR
STARTCHAR 0326
ENCODING 806
SWIDTH 0 0
DWIDTH 0 0
BBX 2 4 4 -5
BITMAP
C0
C0
40
80
ENDCHAR
STARTCHAR 0327
ENCODING 807
SWIDTH 0 0
DWIDTH 0 0
BBX 4 3 3 -3
BITMAP
60
10
F0
ENDCHAR
STARTCHAR 0328
ENCODING 808
SWIDTH 0 0
DWIDTH 0 0
BBX 4 2 3 -2
BITMAP
40
F0
ENDCHAR
STARTCHAR 032E
ENCODING 814
SWIDTH 0 0
DWIDTH 0 0
BBX 6 3 2 -4
BITMAP
84
CC
30
ENDCHAR
STARTCHAR 0330
ENCODING 816
SWIDTH 0 0
DWIDTH 0 0
BBX 6 2 2 -3
BITMAP
F4
98
ENDCHAR
STARTCHAR 0331
ENCODING 817
SWIDTH 0 0
DWIDTH 0 0
BBX 6 1 2 -3
BITMAP
FC
ENDCHAR
STARTCHAR 0335
ENCODING 821
SWIDTH 0 0
DWIDTH 0 0
BBX 6 1 2 5
BITMAP
FC
ENDCHAR
STARTCHAR 0336
ENCODING 822
SWIDTH 0 0
DWIDTH 0 0
BBX 10 1 0 6
BITMAP
FFC0
ENDCHAR
STARTCHAR 0337
ENCODING 823
SWIDTH 0 0
DWIDTH 0 0
BBX 6 4 2 4
BITMAP
04
18
60
80
ENDCHAR
STARTCHAR 0338
ENCODING 824
SWIDTH 0 0
DWIDTH 0 0
BBX 8 11 1 -1
BITMAP
01
02
04
04
08
08
10
20
20
40
80
ENDCHAR
STARTCHAR 0394
ENCODING 916
SWIDTH 600 0
DWIDTH 10 0
BBX 8 11 1 0
BITMAP
18
3C
3C
24
66
66
42
C3
C3
81
FF
ENDCHAR
STARTCHAR 03A9
ENCODING 937
SWIDTH 600 0
DWIDTH 10 0
BBX 10 12 0 0
BITMAP
0C00
3F00
6180
4080
C0C0
C0C0
C0C0
C0C0
4080
4080
2100
F3C0
ENDCHAR
STARTCHAR 03BC
ENCODING 956
SWIDTH 600 0
DWIDTH 10 0
BBX 9 12 1 -3
BITMAP
C200
C200
C200
C200
C200
C200
C200
E600
FB80
C000
C000
C000
ENDCHAR
STARTCHAR 03C0
ENCODING 960
SWIDTH 600 0
DWIDTH 10 0
BBX 10 9 0 0
BITMAP
1FC0
FF80
3300
3300
3300
3300
2300
2100
6100
ENDCHAR
STARTCHAR 1E24
ENCODING 7716
SWIDTH 600 0
DWIDTH 10 0
BBX 8 14 1 -3
BITMAP
C3
C3
C3
C3
FF
FF
C3
C3
C3
C3
C3
00
18
18
ENDCHAR
STARTCHAR 1E25
ENCODING 7717
SWIDTH 600 0
DWIDTH 10 0
BBX 8 15 1 -3
BITMAP
C0
C0
C0
CC
FE
C3
C3
C3
C3
C3
C3
C3
00
18
18
ENDCHAR
STARTCHAR 1E62
ENCODING 7778
SWIDTH 600 0
DWIDTH 10 0
BBX 8 15 1 -3
BITMAP
18
7E
C3
C3
C0
78
1E
03
81
83
C3
7E
00
18
18
ENDCHAR
STARTCHAR 1E63
ENCODING 7779
SWIDTH 600 0
DWIDTH 10 0
BBX 8 12 1 -3
BITMAP
18
7E
C2
60
7C
07
C3
C3
7E
00
18
18
ENDCHAR
STARTCHAR 1E6C
ENCODING 7788
SWIDTH 600 0
DWIDTH 10 0
BBX 8 14 1 -3
BITMAP
FF
18
18
18
18
18
18
18
18
18
18
00
18
18
ENDCHAR
STARTCHAR 1E6D
ENCODING 7789
SWIDTH 600 0
DWIDTH 10 0
BBX 8 14 1 -3
BITMAP
10
10
FF
FF
30
30
30
30
30
39
1F
00
0C
0C
ENDCHAR
STARTCHAR 1E80
ENCODING 7808
SWIDTH 600 0
DWIDTH 10 0
BBX 10 15 0 0
BITMAP
1000
0800
0400
0000
CCC0
CCC0
CCC0
4C80
4E80
7E80
7380
7380
7380
3300
3300
ENDCHAR
STARTCHAR 1E81
ENCODING 7809
SWIDTH 600 0
DWIDTH 10 0
BBX 10 13 0 0
BITMAP
1800
0800
0C00
0000
8C40
CCC0
CCC0
4E80
5A80
7280
7380
3300
3300
ENDCHAR
STARTCHAR 1E82
ENCODING 7810
SWIDTH 600 0
DWIDTH 10 0
BBX 10 15 0 0
BITMAP
0300
0400
0800
0000
CCC0
CCC0
CCC0
4C80
4E80
7E80
7380
7380
7380
3300
3300
ENDCHAR
STARTCHAR 1E83
ENCODING 7811
SWIDTH 600 0
DWIDTH 10 0
BBX 10 13 0 0
BITMAP
0600
0400
0C00
0000
8C40
CCC0
CCC0
4E80
5A80
7280
7380
3300
3300
ENDCHAR
STARTCHAR 1E84
ENCODING 7812
SWIDTH 600 0
DWIDTH 10 0
BBX 10 14 0 0
BITMAP
3300
0000
0000
CCC0
CCC0
CCC0
4C80
4E80
7E80
7380
7380
7380
3300
3300
ENDCHAR
STARTCHAR 1E85
ENCODING 7813
SWIDTH 600 0
DWIDTH 10 0
BBX 10 12 0 0
BITMAP
3300
3300
0000
8C40
CCC0
CCC0
4E80
5A80
7280
7380
3300
3300
ENDCHAR
STARTCHAR 1E9E
ENCODING 7838
SWIDTH 600 0
DWIDTH 10 0
BBX 8 12 1 0
BITMAP
18
7E
43
C3
C3
C6
CE
C3
C1
C1
C3
DE
ENDCHAR
STARTCHAR 1EA0
ENCODING 7840
SWIDTH 600 0
DWIDTH 10 0
BBX 10 14 0 -3
BITMAP
0C00
1E00
1E00
1200
3300
3300
2100
7F80
6180
4080
C0C0
0000
0C00
0C00
ENDCHAR
STARTCHAR 1EA1
ENCODING 7841
SWIDTH 600 0
DWIDTH 10 0
BBX 8 12 1 -3
BITMAP
38
7E
C2
02
3E
C2
C6
C6
7B
00
18
18
ENDCHAR
STARTCHAR 1EA2
ENCODING 7842
SWIDTH 600 0
DWIDTH 10 0
BBX 10 16 0 0
BITMAP
0C00
0200
0400
0000
0000
0C00
1E00
1E00
1200
3300
3300
2100
7F80
6180
4080
C0C0
ENDCHAR
STARTCHAR 1EA3
ENCODING 7843
SWIDTH 600 0
DWIDTH 10 0
BBX 8 13 1 0
BITMAP
18
0C
08
10
38
7E
C2
02
3E
C2
C6
C6
7B
ENDCHAR
STARTCHAR 1EA4
ENCODING 7844
SWIDTH 600 0
DWIDTH 10 0
BBX 10 18 0 0
BITMAP
0200
0600
0C00
0C00
1E00
2100
0000
0C00
1E00
1E00
1200
3300
3300
2100
7F80
6180
4080
C0C0
ENDCHAR
STARTCHAR 1EA5
ENCODING 7845
SWIDTH 600 0
DWIDTH 10 0
BBX 8 15 1 0
BITMAP
0C
18
00
38
66
00
38
7E
C2
02
3E
C2
C6
C6
7B
ENDCHAR
STARTCHAR 1EA6
ENCODING 7846
SWIDTH 600 0
DWIDTH 10 0
BBX 10 18 0 0
BITMAP
1000
1800
0C00
0C00
1E00
2100
0000
0C00
1E00
1E00
1200
3300
3300
2100
7F80
6180
4080
C0C0
ENDCHAR
STARTCHAR 1EA7
ENCODING 7847
SWIDTH 600 0
DWIDTH 10 0
BBX 8 15 1 0
BITMAP
60
10
00
38
66
00
38
7E
C2
02
3E
C2
C6
C6
7B
ENDCHAR
STARTCHAR 1EA8
ENCODING 7848
SWIDTH 600 0
DWIDTH 10 0
BBX 10 18 0 0
BITMAP
0E00
0200
0400
0C00
1E00
2100
0000
0C00
1E00
1E00
1200
3300
3300
2100
7F80
6180
4080
C0C0
ENDCHAR
STARTCHAR 1EA9
ENCODING 7849
SWIDTH 600 0
DWIDTH 10 0
BBX 8 16 1 0
BITMAP
18
08
08
00
38
66
00
38
7E
C2
02
3E
C2
C6
C6
7B
ENDCHAR
STARTCHAR 1EAA
ENCODING 7850
SWIDTH 600 0
DWIDTH 10 0
BBX 10 17 0 0
BITMAP
3F00
2600
0C00
1E00
2100
0000
0C00
1E00
1E00
1200
3300
3300
2100
7F80
6180
4080
C0C0
ENDCHAR
STARTCHAR 1EAB
ENCODING 7851
SWIDTH 600 0
DWIDTH 10 0
BBX 8 15 1 0
BITMAP
32
5C
00
38
66
00
38
7E
C2
02
3E
C2
C6
C6
7B
ENDCHAR
STARTCHAR 1EAC
ENCODING 7852
SWIDTH 600 0
DWIDTH 10 0
BBX 10 18 0 -3
BITMAP
0C00
1200
2100
0000
0C00
1E00
1E00
1200
3300
3300
2100
7F80
6180
4080
C0C0
0000
0C00
0C00
ENDCHAR
STARTCHAR 1EAD
ENCODING 7853
SWIDTH 600 0
DWIDTH 10 0
BBX 8 16 1 -3
BITMAP
18
38
64
02
38
7E
C2
02
3E
C2
C6
C6
7B
00
18
18
ENDCHAR
STARTCHAR 1EAE
ENCODING 7854
SWIDTH 600 0
DWIDTH 10 0
BBX 10 17 0 0
BITMAP
0600
0C00
2100
1E00
0000
0000
0C00
1E00
1E00
1200
3300
3300
2100
7F80
6180
4080
C0C0
ENDCHAR
STARTCHAR 1EAF
ENCODING 7855
SWIDTH 600 0
DWIDTH 10 0
BBX 8 15 1 0
BITMAP
0C
08
10
46
3C
00
38
7E
C2
02
3E
C2
C6
C6
7B
ENDCHAR
STARTCHAR 1EB0
ENCODING 7856
SWIDTH 600 0
DWIDTH 10 0
BBX 10 17 0 0
BITMAP
1800
0C00
2100
1E00
0000
0000
0C00
1E00
1E00
1200
3300
3300
2100
7F80
6180
4080
C0C0
ENDCHAR
STARTCHAR 1EB1
ENCODING 7857
SWIDTH 600 0
DWIDTH 10 0
BBX 8 15 1 0
BITMAP
60
10
18
46
3C
00
38
7E
C2
02
3E
C2
C6
C6
7B
ENDCHAR
STARTCHAR 1EB2
ENCODING 7858
SWIDTH 600 0
DWIDTH 10 0
BBX 10 18 0 0
BITMAP
0C00
0200
0400
2100
1E00
0000
0000
0C00
1E00
1E00
1200
3300
3300
2100
7F80
6180
4080
C0C0
ENDCHAR
STARTCHAR 1EB3
ENCODING 7859
SWIDTH 600 0
DWIDTH 10 0
BBX 8 16 1 0
BITMAP
10
28
08
10
46
3C
00
38
7E
C2
02
3E
C2
C6
C6
7B
ENDCHAR
STARTCHAR 1EB4
ENCODING 7860
SWIDTH 600 0
DWIDTH 10 0
BBX 10 17 0 0
BITMAP
3F00
2200
2100
1E00
0000
0000
0C00
1E00
1E00
1200
3300
3300
2100
7F80
6180
4080
C0C0
ENDCHAR
STARTCHAR 1EB5
ENCODING 7861
SWIDTH 600 0
DWIDTH 10 0
BBX 8 15 1 0
BITMAP
32
5C
00
46
3C
00
38
7E
C2
02
3E
C2
C6
C6
7B
ENDCHAR
STARTCHAR 1EB6
ENCODING 7862
SWIDTH 600 0
DWIDTH 10 0
BBX 10 18 0 -3
BITMAP
2300
1E00
0000
0000
0C00
1E00
1E00
1200
3300
3300
2100
7F80
6180
4080
C0C0
0000
0C00
0C00
ENDCHAR
STARTCHAR 1EB7
ENCODING 7863
SWIDTH 600 0
DWIDTH 10 0
BBX 8 15 1 -3
BITMAP
46
3C
00
38
7E
C2
02
3E
C2
C6
C6
7B
00
18
18
ENDCHAR
STARTCHAR 1EB8
ENCODING 7864
SWIDTH 600 0
DWIDTH 10 0
BBX 8 14 1 -3
BITMAP
FF
C0
C0
C0
FE
FE
C0
C0
C0
C0
FF
00
18
18
ENDCHAR
STARTCHAR 1EB9
ENCODING 7865
SWIDTH 600 0
DWIDTH 10 0
BBX 8 12 1 -3
BITMAP
18
7E
C3
C3
FF
C0
C3
62
3C
00
18
18
ENDCHAR
STARTCHAR 1EBA
ENCODING 7866
SWIDTH 600 0
DWIDTH 10 0
BBX 8 16 1 0
BITMAP
1C
04
0C
00
00
FF
C0
C0
C0
FE
FE
C0
C0
C0
C0
FF
ENDCHAR
STARTCHAR 1EBB
ENCODING 7867
SWIDTH 600 0
DWIDTH 10 0
BBX 8 13 1 0
BITMAP
18
04
0C
10
18
7E
C3
C3
FF
C0
C3
62
3C
ENDCHAR
STARTCHAR 1EBC
ENCODING 7868
SWIDTH 600 0
DWIDTH 10 0
BBX 8 15 1 0
BITMAP
32
7E
00
00
FF
C0
C0
C0
FE
FE
C0
C0
C0
C0
FF
ENDCHAR
STARTCHAR 1EBD
ENCODING 7869
SWIDTH 600 0
DWIDTH 10 0
BBX 8 12 1 0
BITMAP
3A
4C
00
18
7E
C3
C3
FF
C0
C3
62
3C
ENDCHAR
STARTCHAR 1EBE
ENCODING 7870
SWIDTH 600 0
DWIDTH 10 0
BBX 8 18 1 0
BITMAP
06
0C
08
18
36
40
00
FF
C0
C0
C0
FE
FE
C0
C0
C0
C0
FF
ENDCHAR
STARTCHAR 1EBF
ENCODING 7871
SWIDTH 600 0
DWIDTH 10 0
BBX 8 15 1 0
BITMAP
0E
08
00
1C
66
00
18
7E
C3
C3
FF
C0
C3
62
3C
ENDCHAR
STARTCHAR 1EC0
ENCODING 7872
SWIDTH 600 0
DWIDTH 10 0
BBX 8 18 1 0
BITMAP
20
10
08
18
36
40
00
FF
C0
C0
C0
FE
FE
C0
C0
C0
C0
FF
ENDCHAR
STARTCHAR 1EC1
ENCODING 7873
SWIDTH 600 0
DWIDTH 10 0
BBX 8 15 1 0
BITMAP
30
18
00
1C
66
00
18
7E
C3
C3
FF
C0
C3
62
3C
ENDCHAR
STARTCHAR 1EC2
ENCODING 7874
SWIDTH 600 0
DWIDTH 10 0
BBX 8 18 1 0
BITMAP
1C
04
08
18
36
40
00
FF
C0
C0
C0
FE
FE
C0
C0
C0
C0
FF
ENDCHAR
STARTCHAR 1EC3
ENCODING 7875
SWIDTH 600 0
DWIDTH 10 0
BBX 8 16 1 0
BITMAP
18
04
08
00
1C
66
00
18
7E
C3
C3
FF
C0
C3
62
3C
ENDCHAR
STARTCHAR 1EC4
ENCODING 7876
SWIDTH 600 0
DWIDTH 10 0
BBX 8 17 1 0
BITMAP
3E
44
18
34
42
00
FF
C0
C0
C0
FE
FE
C0
C0
C0
C0
FF
ENDCHAR
STARTCHAR 1EC5
ENCODING 7877
SWIDTH 600 0
DWIDTH 10 0
BBX 8 15 1 0
BITMAP
32
5E
00
1C
66
00
18
7E
C3
C3
FF
C0
C3
62
3C
ENDCHAR
STARTCHAR 1EC6
ENCODING 7878
SWIDTH 600 0
DWIDTH 10 0
BBX 8 18 1 -3
BITMAP
18
34
42
00
FF
C0
C0
C0
FE
FE
C0
C0
C0
C0
FF
00
18
18
ENDCHAR
STARTCHAR 1EC7
ENCODING 7879
SWIDTH 600 0
DWIDTH 10 0
BBX 8 16 1 -3
BITMAP
18
1C
26
40
18
7E
C3
C3
FF
C0
C3
62
3C
00
18
18
ENDCHAR
STARTCHAR 1EC8
ENCODING 7880
SWIDTH 600 0
DWIDTH 10 0
BBX 6 16 2 0
BITMAP
30
08
10
00
00
FC
30
30
30
30
30
30
30
30
30
FC
ENDCHAR
STARTCHAR 1EC9
ENCODING 7881
SWIDTH 600 0
DWIDTH 10 0
BBX 7 13 2 0
BITMAP
38
08
08
10
F0
F0
10
10
10
10
10
10
FE
ENDCHAR
STARTCHAR 1ECA
ENCODING 7882
SWIDTH 600 0
DWIDTH 10 0
BBX 6 14 2 -3
BITMAP
FC
30
30
30
30
30
30
30
30
30
FC
00
30
30
ENDCHAR
STARTCHAR 1ECB
ENCODING 7883
SWIDTH 600 0
DWIDTH 10 0
BBX 7 15 2 -3
BITMAP
10
10
00
F0
F0
10
10
10
10
10
10
FE
00
30
30
ENDCHAR
STARTCHAR 1ECC
ENCODING 7884
SWIDTH 600 0
DWIDTH 10 0
BBX 8 15 1 -3
BITMAP
18
7E
C3
C3
81
81
81
81
81
C3
E7
7E
00
18
18
ENDCHAR
STARTCHAR 1ECD
ENCODING 7885
SWIDTH 600 0
DWIDTH 10 0
BBX 8 12 1 -3
BITMAP
18
7E
C3
C3
C3
C3
C3
66
3C
00
18
18
ENDCHAR
STARTCHAR 1ECE
ENCODING 7886
SWIDTH 600 0
DWIDTH 10 0
BBX 8 16 1 0
BITMAP
18
04
08
00
18
7E
C3
C3
81
81
81
81
81
C3
E7
7E
ENDCHAR
STARTCHAR 1ECF
ENCODING 7887
SWIDTH 600 0
DWIDTH 10 0
BBX 8 13 1 0
BITMAP
18
04
0C
10
18
7E
C3
C3
C3
C3
C3
66
3C
ENDCHAR
STARTCHAR 1ED0
ENCODING 7888
SWIDTH 600 0
DWIDTH 10 0
BBX 8 18 1 0
BITMAP
04
0C
18
18
3C
42
18
7E
C3
C3
81
81
81
81
81
C3
E7
7E
ENDCHAR
STARTCHAR 1ED1
ENCODING 7889
SWIDTH 600 0
DWIDTH 10 0
BBX 8 15 1 0
BITMAP
0E
18
00
18
66
00
18
7E
C3
C3
C3
C3
C3
66
3C
ENDCHAR
STARTCHAR 1ED2
ENCODING 7890
SWIDTH 600 0
DWIDTH 10 0
BBX 8 18 1 0
BITMAP
20
30
18
18
3C
42
18
7E
C3
C3
81
81
81
81
81
C3
E7
7E
ENDCHAR
STARTCHAR 1ED3
ENCODING 7891
SWIDTH 600 0
DWIDTH 10 0
BBX 8 15 1 0
BITMAP
70
18
00
18
66
00
18
7E
C3
C3
C3
C3
C3
66
3C
ENDCHAR
STARTCHAR 1ED4
ENCODING 7892
SWIDTH 600 0
DWIDTH 10 0
BBX 8 18 1 0
BITMAP
1C
04
08
18
3C
42
18
7E
C3
C3
81
81
81
81
81
C3
E7
7E
ENDCHAR
STARTCHAR 1ED5
ENCODING 7893
SWIDTH 600 0
DWIDTH 10 0
BBX 8 16 1 0
BITMAP
18
04
08
00
18
66
00
18
7E
C3
C3
C3
C3
C3
66
3C
ENDCHAR
STARTCHAR 1ED6
ENCODING 7894
SWIDTH 600 0
DWIDTH 10 0
BBX 8 17 1 0
BITMAP
7E
4C
18
3C
42
18
7E
C3
C3
81
81
81
81
81
C3
E7
7E
ENDCHAR
STARTCHAR 1ED7
ENCODING 7895
SWIDTH 600 0
DWIDTH 10 0
BBX 8 15 1 0
BITMAP
32
5E
00
18
66
00
18
7E
C3
C3
C3
C3
C3
66
3C
ENDCHAR
STARTCHAR 1ED8
ENCODING 7896
SWIDTH 600 0
DWIDTH 10 0
BBX 8 18 1 -3
BITMAP
18
24
42
18
7E
C3
C3
81
81
81
81
81
C3
E7
7E
00
18
18
ENDCHAR
STARTCHAR 1ED9
ENCODING 7897
SWIDTH 600 0
DWIDTH 10 0
BBX 8 16 1 -3
BITMAP
18
3C
66
00
18
7E
C3
C3
C3
C3
C3
66
3C
00
18
18
ENDCHAR
STARTCHAR 1EDA
ENCODING 7898
SWIDTH 600 0
DWIDTH 10 0
BBX 9 15 1 0
BITMAP
0600
0800
1080
1980
7F00
C300
C300
8100
8100
8100
8100
8100
C300
E700
7E00
ENDCHAR
STARTCHAR 1EDB
ENCODING 7899
SWIDTH 600 0
DWIDTH 10 0
BBX 9 13 1 0
BITMAP
0C00
0800
1800
0080
1980
7F00
C300
C300
C300
C300
C300
6600
3C00
ENDCHAR
STARTCHAR 1EDC
ENCODING 7900
SWIDTH 600 0
DWIDTH 10 0
BBX 9 15 1 0
BITMAP
2000
1000
0880
1980
7F00
C300
C300
8100
8100
8100
8100
8100
C300
E700
7E00
ENDCHAR
STARTCHAR 1EDD
ENCODING 7901
SWIDTH 600 0
DWIDTH 10 0
BBX 9 13 1 0
BITMAP
3000
1000
1800
0080
1980
7F00
C300
C300
C300
C300
C300
6600
3C00
ENDCHAR
STARTCHAR 1EDE
ENCODING 7902
SWIDTH 600 0
DWIDTH 10 0
BBX 9 16 1 0
BITMAP
1800
0400
0800
0080
1980
7F00
C300
C300
8100
8100
8100
8100
8100
C300
E700
7E00
ENDCHAR
STARTCHAR 1EDF
ENCODING 7903
SWIDTH 600 0
DWIDTH 10 0
BBX 9 13 1 0
BITMAP
1800
0400
0C00
1080
1980
7F00
C300
C300
C300
C300
C300
6600
3C00
ENDCHAR
STARTCHAR 1EE0
ENCODING 7904
SWIDTH 600 0
DWIDTH 10 0
BBX 9 15 1 0
BITMAP
3200
7C00
0180
1980
7F00
C300
C300
8100
8100
8100
8100
8100
C300
E700
7E00
ENDCHAR
STARTCHAR 1EE1
ENCODING 7905
SWIDTH 600 0
DWIDTH 10 0
BBX 9 12 1 0
BITMAP
3200
4C00
0080
1980
7F00
C300
C300
C300
C300
C300
6600
3C00
ENDCHAR
STARTCHAR 1EE2
ENCODING 7906
SWIDTH 600 0
DWIDTH 10 0
BBX 9 16 1 -3
BITMAP
0080
1980
7F00
C300
C300
8100
8100
8100
8100
8100
C300
E700
7E00
0000
1800
1800
ENDCHAR
STARTCHAR 1EE3
ENCODING 7907
SWIDTH 600 0
DWIDTH 10 0
BBX 9 13 1 -3
BITMAP
0080
1980
7F00
C300
C300
C300
C300
C300
6600
3C00
0000
1800
1800
ENDCHAR
STARTCHAR 1EE4
ENCODING 7908
SWIDTH 600 0
DWIDTH 10 0
BBX 8 14 1 -3
BITMAP
C3
C3
C3
C3
C3
C3
C3
C3
C3
66
7E
00
18
18
ENDCHAR
STARTCHAR 1EE5
ENCODING 7909
SWIDTH 600 0
DWIDTH 10 0
BBX 9 12 1 -3
BITMAP
C200
C200
C200
C200
C200
C200
C200
E600
7B80
0000
1800
1800
ENDCHAR
STARTCHAR 1EE6
ENCODING 7910
SWIDTH 600 0
DWIDTH 10 0
BBX 8 16 1 0
BITMAP
18
04
08
00
00
C3
C3
C3
C3
C3
C3
C3
C3
C3
66
7E
ENDCHAR
STARTCHAR 1EE7
ENCODING 7911
SWIDTH 600 0
DWIDTH 10 0
BBX 9 13 1 0
BITMAP
1800
0C00
0800
1000
C200
C200
C200
C200
C200
C200
C200
E600
7B80
ENDCHAR
STARTCHAR 1EE8
ENCODING 7912
SWIDTH 600 0
DWIDTH 10 0
BBX 10 15 1 0
BITMAP
0600
08C0
1080
0180
C300
C300
C300
C300
C300
C300
C300
C300
C300
6600
7E00
ENDCHAR
STARTCHAR 1EE9
ENCODING 7913
SWIDTH 600 0
DWIDTH 10 0
BBX 9 13 1 0
BITMAP
0C00
0800
1880
0080
C300
C200
C200
C200
C200
C200
C200
E600
7B80
ENDCHAR
STARTCHAR 1EEA
ENCODING 7914
SWIDTH 600 0
DWIDTH 10 0
BBX 10 15 1 0
BITMAP
2000
10C0
0880
0180
C300
C300
C300
C300
C300
C300
C300
C300
C300
6600
7E00
ENDCHAR
STARTCHAR 1EEB
ENCODING 7915
SWIDTH 600 0
DWIDTH 10 0
BBX 9 13 1 0
BITMAP
2000
3000
1880
0080
C300
C200
C200
C200
C200
C200
C200
E600
7B80
ENDCHAR
STARTCHAR 1EEC
ENCODING 7916
SWIDTH 600 0
DWIDTH 10 0
BBX 10 16 1 0
BITMAP
1800
0400
08C0
0080
0180
C300
C300
C300
C300
C300
C300
C300
C300
C300
6600
7E00
ENDCHAR
STARTCHAR 1EED
ENCODING 7917
SWIDTH 600 0
DWIDTH 10 0
BBX 9 13 1 0
BITMAP
1800
0C00
0880
1080
C300
C200
C200
C200
C200
C200
C200
E600
7B80
ENDCHAR
STARTCHAR 1EEE
ENCODING 7918
SWIDTH 600 0
DWIDTH 10 0
BBX 10 15 1 0
BITMAP
3200
7EC0
0080
0180
C300
C300
C300
C300
C300
C300
C300
C300
C300
6600
7E00
ENDCHAR
STARTCHAR 1EEF
ENCODING 7919
SWIDTH 600 0
DWIDTH 10 0
BBX 9 12 1 0
BITMAP
3600
4C80
0080
C300
C200
C200
C200
C200
C200
C200
E600
7B80
ENDCHAR
STARTCHAR 1EF0
ENCODING 7920
SWIDTH 600 0
DWIDTH 10 0
BBX 10 17 1 -3
BITMAP
00C0
0080
0180
C300
C300
C300
C300
C300
C300
C300
C300
C300
6600
7E00
0000
1800
1800
ENDCHAR
STARTCHAR 1EF1
ENCODING 7921
SWIDTH 600 0
DWIDTH 10 0
BBX 9 14 1 -3
BITMAP
0080
0080
C300
C200
C200
C200
C200
C200
C200
E600
7B80
0000
1800
1800
ENDCHAR
STARTCHAR 1EF2
ENCODING 7922
SWIDTH 600 0
DWIDTH 10 0
BBX 10 15 0 0
BITMAP
1000
0800
0400
8040
6180
6180
3300
3300
1E00
1E00
0C00
0C00
0C00
0C00
0C00
ENDCHAR
STARTCHAR 1EF3
ENCODING 7923
SWIDTH 600 0
DWIDTH 10 0
BBX 8 16 1 -3
BITMAP
30
10
18
00
C3
C3
42
66
66
34
3C
18
18
18
30
E0
ENDCHAR
STARTCHAR 1EF4
ENCODING 7924
SWIDTH 600 0
DWIDTH 10 0
BBX 10 14 0 -3
BITMAP
E1C0
6180
3300
3300
1E00
1E00
0C00
0C00
0C00
0C00
0C00
0000
0C00
0C00
ENDCHAR
STARTCHAR 1EF5
ENCODING 7925
SWIDTH 600 0
DWIDTH 10 0
BBX 8 12 1 -3
BITMAP
C3
C3
42
66
66
34
3C
18
18
18
33
E3
ENDCHAR
STARTCHAR 1EF6
ENCODING 7926
SWIDTH 600 0
DWIDTH 10 0
BBX 10 16 0 0
BITMAP
0C00
0200
0400
0000
8040
6180
6180
3300
3300
1E00
1E00
0C00
0C00
0C00
0C00
0C00
ENDCHAR
STARTCHAR 1EF7
ENCODING 7927
SWIDTH 600 0
DWIDTH 10 0
BBX 8 16 1 -3
BITMAP
18
04
0C
08
C3
C3
42
66
66
34
3C
18
18
18
30
E0
ENDCHAR
STARTCHAR 1EF8
ENCODING 7928
SWIDTH 600 0
DWIDTH 10 0
BBX 10 15 0 0
BITMAP
1900
3F00
0000
8040
6180
6180
3300
3300
1E00
1E00
0C00
0C00
0C00
0C00
0C00
ENDCHAR
STARTCHAR 1EF9
ENCODING 7929
SWIDTH 600 0
DWIDTH 10 0
BBX 8 15 1 -3
BITMAP
3A
4C
00
C3
C3
42
66
66
34
3C
18
18
18
30
E0
ENDCHAR
STARTCHAR 2009
ENCODING 8201
SWIDTH 600 0
DWIDTH 10 0
BBX 0 0 0 0
BITMAP
ENDCHAR
STARTCHAR 2010
ENCODING 8208
SWIDTH 600 0
DWIDTH 10 0
BBX 4 1 3 4
BITMAP
F0
ENDCHAR
STARTCHAR 2011
ENCODING 8209
SWIDTH 600 0
DWIDTH 10 0
BBX 4 1 3 4
BITMAP
F0
ENDCHAR
STARTCHAR 2013
ENCODING 8211
SWIDTH 600 0
DWIDTH 10 0
BBX 6 1 2 4
BITMAP
FC
ENDCHAR
STARTCHAR 2014
ENCODING 8212
SWIDTH 600 0
DWIDTH 10 0
BBX 10 1 0 4
BITMAP
FFC0
ENDCHAR
STARTCHAR 2018
ENCODING 8216
SWIDTH 600 0
DWIDTH 10 0
BBX 2 4 4 7
BITMAP
C0
80
C0
C0
ENDCHAR
STARTCHAR 2019
ENCODING 8217
SWIDTH 600 0
DWIDTH 10 0
BBX 2 4 4 7
BITMAP
C0
C0
40
C0
ENDCHAR
STARTCHAR 201A
ENCODING 8218
SWIDTH 600 0
DWIDTH 10 0
BBX 2 4 4 -2
BITMAP
C0
C0
40
C0
ENDCHAR
STARTCHAR 201C
ENCODING 8220
SWIDTH 600 0
DWIDTH 10 0
BBX 6 4 2 7
BITMAP
4C
48
CC
CC
ENDCHAR
STARTCHAR 201D
ENCODING 8221
SWIDTH 600 0
DWIDTH 10 0
BBX 6 4 2 7
BITMAP
CC
CC
48
C8
ENDCHAR
STARTCHAR 201E
ENCODING 8222
SWIDTH 600 0
DWIDTH 10 0
BBX 6 4 2 -2
BITMAP
CC
CC
48
C8
ENDCHAR
STARTCHAR 2020
ENCODING 8224
SWIDTH 600 0
DWIDTH 10 0
BBX 8 14 1 -3
BITMAP
18
18
89
FF
08
18
18
18
18
18
18
18
18
18
ENDCHAR
STARTCHAR 2021
ENCODING 8225
SWIDTH 600 0
DWIDTH 10 0
BBX 8 14 1 -3
BITMAP
18
18
89
FF
18
18
18
18
18
89
FF
18
18
18
ENDCHAR
STARTCHAR 2022
ENCODING 8226
SWIDTH 600 0
DWIDTH 10 0
BBX 6 5 2 3
BITMAP
78
78
FC
78
30
ENDCHAR
STARTCHAR 2026
ENCODING 8230
SWIDTH 600 0
DWIDTH 10 0
BBX 8 2 1 0
BITMAP
DB
DB
ENDCHAR
STARTCHAR 2030
ENCODING 8240
SWIDTH 600 0
DWIDTH 10 0
BBX 10 11 0 0
BITMAP
7800
4800
4800
5800
2000
FFC0
7380
4C80
4C80
4C80
7380
ENDCHAR
STARTCHAR 2032
ENCODING 8242
SWIDTH 600 0
DWIDTH 10 0
BBX 2 2 4 9
BITMAP
C0
80
ENDCHAR
STARTCHAR 2033
ENCODING 8243
SWIDTH 600 0
DWIDTH 10 0
BBX 4 2 3 9
BITMAP
F0
B0
ENDCHAR
STARTCHAR 2039
ENCODING 8249
SWIDTH 600 0
DWIDTH 10 0
BBX 4 6 3 3
BITMAP
30
20
60
C0
60
30
ENDCHAR
STARTCHAR 203A
ENCODING 8250
SWIDTH 600 0
DWIDTH 10 0
BBX 4 6 3 3
BITMAP
C0
40
60
30
60
C0
ENDCHAR
STARTCHAR 2044
ENCODING 8260
SWIDTH 600 0
DWIDTH 10 0
BBX 10 11 0 0
BITMAP
00C0
0100
0100
0200
0400
0000
0800
1000
2000
4000
C000
ENDCHAR
STARTCHAR 2052
ENCODING 8274
SWIDTH 600 0
DWIDTH 10 0
BBX 10 15 0 -3
BITMAP
00C0
0080
2100
0300
0200
0600
0400
0C00
0800
1800
1000
2000
6100
4000
C000
ENDCHAR
STARTCHAR 2070
ENCODING 8304
SWIDTH 600 0
DWIDTH 10 0
BBX 4 6 3 7
BITMAP
F0
90
90
90
90
F0
ENDCHAR
STARTCHAR 2074
ENCODING 8308
SWIDTH 600 0
DWIDTH 10 0
BBX 5 6 2 7
BITMAP
20
30
50
90
78
10
ENDCHAR
STARTCHAR 2075
ENCODING 8309
SWIDTH 600 0
DWIDTH 10 0
BBX 4 6 3 7
BITMAP
F0
80
F0
10
90
F0
ENDCHAR
STARTCHAR 2076
ENCODING 8310
SWIDTH 600 0
DWIDTH 10 0
BBX 4 6 3 7
BITMAP
F0
90
E0
90
90
F0
ENDCHAR
STARTCHAR 2077
ENCODING 8311
SWIDTH 600 0
DWIDTH 10 0
BBX 4 6 3 7
BITMAP
F0
20
20
40
40
40
ENDCHAR
STARTCHAR 2078
ENCODING 8312
SWIDTH 600 0
DWIDTH 10 0
BBX 4 6 3 7
BITMAP
F0
90
F0
90
90
F0
ENDCHAR
STARTCHAR 2079
ENCODING 8313
SWIDTH 600 0
DWIDTH 10 0
BBX 5 6 2 7
BITMAP
78
C8
48
38
48
70
ENDCHAR
STARTCHAR 207F
ENCODING 8319
SWIDTH 600 0
DWIDTH 10 0
BBX 4 6 3 6
BITMAP
A0
D0
90
90
90
90
ENDCHAR
STARTCHAR 2080
ENCODING 8320
SWIDTH 600 0
DWIDTH 10 0
BBX 4 6 3 -3
BITMAP
F0
90
90
90
90
F0
ENDCHAR
STARTCHAR 2081
ENCODING 8321
SWIDTH 600 0
DWIDTH 10 0
BBX 4 6 3 -3
BITMAP
E0
60
60
60
60
F0
ENDCHAR
STARTCHAR 2082
ENCODING 8322
SWIDTH 600 0
DWIDTH 10 0
BBX 4 6 3 -3
BITMAP
F0
90
10
60
C0
F0
ENDCHAR
STARTCHAR 2083
ENCODING 8323
SWIDTH 600 0
DWIDTH 10 0
BBX 4 6 3 -3
BITMAP
F0
90
70
10
90
F0
ENDCHAR
STARTCHAR 2084
ENCODING 8324
SWIDTH 600 0
DWIDTH 10 0
BBX 5 6 2 -3
BITMAP
20
30
50
90
78
10
ENDCHAR
STARTCHAR 2085
ENCODING 8325
SWIDTH 600 0
DWIDTH 10 0
BBX 4 6 3 -3
BITMAP
F0
80
F0
10
90
F0
ENDCHAR
STARTCHAR 2086
ENCODING 8326
SWIDTH 600 0
DWIDTH 10 0
BBX 4 6 3 -3
BITMAP
F0
90
E0
90
90
F0
ENDCHAR
STARTCHAR 2087
ENCODING 8327
SWIDTH 600 0
DWIDTH 10 0
BBX 4 6 3 -3
BITMAP
F0
20
20
40
40
40
ENDCHAR
STARTCHAR 2088
ENCODING 8328
SWIDTH 600 0
DWIDTH 10 0
BBX 4 6 3 -3
BITMAP
F0
90
F0
90
90
F0
ENDCHAR
STARTCHAR 2089
ENCODING 8329
SWIDTH 600 0
DWIDTH 10 0
BBX 5 6 2 -3
BITMAP
78
C8
48
38
48
70
ENDCHAR
STARTCHAR 2099
ENCODING 8345
SWIDTH 600 0
DWIDTH 10 0
BBX 4 6 3 -2
BITMAP
A0
D0
90
90
90
90
ENDCHAR
STARTCHAR 20A1
ENCODING 8353
SWIDTH 600 0
DWIDTH 10 0
BBX 8 14 1 -1
BITMAP
05
05
3F
6A
CA
D2
94
94
EC
E8
68
70
5E
90
ENDCHAR
STARTCHAR 20A3
ENCODING 8355
SWIDTH 600 0
DWIDTH 10 0
BBX 9 11 0 0
BITMAP
7F80
6000
6000
6000
6000
7F00
6000
6000
FC00
6000
6000
ENDCHAR
STARTCHAR 20A4
ENCODING 8356
SWIDTH 600 0
DWIDTH 10 0
BBX 8 12 1 0
BITMAP
0C
3F
63
61
60
FC
60
FC
FC
60
60
FF
ENDCHAR
STARTCHAR 20A6
ENCODING 8358
SWIDTH 600 0
DWIDTH 10 0
BBX 10 11 0 0
BITMAP
6180
7180
7180
FFC0
6980
6D80
FFC0
FFC0
6380
6380
6180
ENDCHAR
STARTCHAR 20A7
ENCODING 8359
SWIDTH 600 0
DWIDTH 10 0
BBX 10 11 0 0
BITMAP
7F80
6180
FFC0
FFC0
6180
7F00
6000
6000
6000
6000
6000
ENDCHAR
STARTCHAR 20A9
ENCODING 8361
SWIDTH 600 0
DWIDTH 10 0
BBX 10 11 0 0
BITMAP
CCC0
CCC0
CCC0
FFC0
4E80
7E80
FFC0
FFC0
7380
3300
3300
ENDCHAR
STARTCHAR 20AB
ENCODING 8363
SWIDTH 600 0
DWIDTH 10 0
BBX 9 14 1 -2
BITMAP
0300
1F80
0300
3300
7F00
C700
C300
C300
C300
C300
4700
7B00
0000
FE00
ENDCHAR
STARTCHAR 20AC
ENCODING 8364
SWIDTH 600 0
DWIDTH 10 0
BBX 9 12 0 0
BITMAP
0300
0F80
1800
3000
3000
FE00
3000
FE00
3000
1800
1C00
0780
ENDCHAR
STARTCHAR 20AD
ENCODING 8365
SWIDTH 600 0
DWIDTH 10 0
BBX 10 11 0 0
BITMAP
61C0
6300
6300
6600
FFC0
FFC0
6600
6600
6300
6180
61C0
ENDCHAR
STARTCHAR 20B1
ENCODING 8369
SWIDTH 600 0
DWIDTH 10 0
BBX 11 11 0 0
BITMAP
7F80
E1E0
E0E0
E0E0
E1E0
7F00
6000
6000
6000
6000
6000
ENDCHAR
STARTCHAR 20B2
ENCODING 8370
SWIDTH 600 0
DWIDTH 10 0
BBX 8 14 1 -1
BITMAP
18
18
7E
DB
99
99
98
9F
99
99
DB
FF
7D
18
ENDCHAR
STARTCHAR 20B5
ENCODING 8373
SWIDTH 600 0
DWIDTH 10 0
BBX 8 14 1 -1
BITMAP
04
1C
7E
C7
CB
89
88
90
90
91
E3
E7
7E
60
ENDCHAR
STARTCHAR 20B9
ENCODING 8377
SWIDTH 600 0
DWIDTH 10 0
BBX 9 11 1 0
BITMAP
FF80
0C00
FF00
0600
0C00
FC00
C000
6000
3000
1800
0E00
ENDCHAR
STARTCHAR 20BA
ENCODING 8378
SWIDTH 600 0
DWIDTH 10 0
BBX 8 11 1 0
BITMAP
60
68
78
70
E8
F8
60
E3
E3
66
7C
ENDCHAR
STARTCHAR 20BC
ENCODING 8380
SWIDTH 600 0
DWIDTH 10 0
BBX 10 13 0 0
BITMAP
0C00
0C00
3F00
6D80
4C80
CCC0
CCC0
CCC0
CCC0
CCC0
CCC0
C0C0
C0C0
ENDCHAR
STARTCHAR 20BD
ENCODING 8381
SWIDTH 600 0
DWIDTH 10 0
BBX 10 11 0 0
BITMAP
7F80
6180
60C0
6080
6180
FF00
6000
6000
FC00
6000
6000
ENDCHAR
STARTCHAR 2113
ENCODING 8467
SWIDTH 600 0
DWIDTH 10 0
BBX 7 12 1 0
BITMAP
18
3C
22
62
62
62
64
F8
60
60
20
3C
ENDCHAR
STARTCHAR 2116
ENCODING 8470
SWIDTH 600 0
DWIDTH 10 0
BBX 10 11 0 0
BITMAP
EC00
EC00
EC00
ED80
EE80
DE40
DE40
DE40
DF80
DC00
CFC0
ENDCHAR
STARTCHAR 2117
ENCODING 8471
SWIDTH 600 0
DWIDTH 10 0
BBX 10 12 0 0
BITMAP
1E00
2100
4080
9E40
9140
9140
9E40
9040
9040
5080
4080
3F00
ENDCHAR
STARTCHAR 2122
ENCODING 8482
SWIDTH 600 0
DWIDTH 10 0
BBX 10 6 0 5
BITMAP
FCC0
4CC0
4D40
4B40
4B40
4B40
ENDCHAR
STARTCHAR 2126
ENCODING 8486
SWIDTH 600 0
DWIDTH 10 0
BBX 10 12 0 0
BITMAP
0C00
3F00
6180
4080
C0C0
C0C0
C0C0
C0C0
4080
4080
2100
F3C0
ENDCHAR
STARTCHAR 212E
ENCODING 8494
SWIDTH 600 0
DWIDTH 10 0
BBX 10 12 0 0
BITMAP
0C00
3300
4080
4080
C0C0
C0C0
FFC0
C000
C000
4000
6080
1F00
ENDCHAR
STARTCHAR 2202
ENCODING 8706
SWIDTH 600 0
DWIDTH 10 0
BBX 8 12 1 0
BITMAP
38
3E
02
03
03
7F
C7
C3
83
C3
E6
7C
ENDCHAR
STARTCHAR 2205
ENCODING 8709
SWIDTH 600 0
DWIDTH 10 0
BBX 8 9 1 1
BITMAP
19
67
C7
8D
99
B1
E3
FE
88
ENDCHAR
STARTCHAR 2206
ENCODING 8710
SWIDTH 600 0
DWIDTH 10 0
BBX 8 11 1 0
BITMAP
18
3C
3C
24
66
66
42
C3
C3
81
FF
ENDCHAR
STARTCHAR 220F
ENCODING 8719
SWIDTH 600 0
DWIDTH 10 0
BBX 10 14 0 -2
BITMAP
FFC0
FFC0
6180
6180
6180
6180
6180
6180
6180
6180
6180
6180
6180
6180
ENDCHAR
STARTCHAR 2211
ENCODING 8721
SWIDTH 600 0
DWIDTH 10 0
BBX 8 14 1 -2
BITMAP
FF
FF
60
30
30
18
0C
0C
18
30
60
C0
FF
FF
ENDCHAR
STARTCHAR 2212
ENCODING 8722
SWIDTH 600 0
DWIDTH 10 0
BBX 8 1 1 4
BITMAP
FF
ENDCHAR
STARTCHAR 2215
ENCODING 8725
SWIDTH 600 0
DWIDTH 10 0
BBX 8 11 1 0
BITMAP
03
02
04
04
08
10
10
20
20
40
80
ENDCHAR
STARTCHAR 2219
ENCODING 8729
SWIDTH 600 0
DWIDTH 10 0
BBX 2 2 4 4
BITMAP
C0
C0
ENDCHAR
STARTCHAR 221A
ENCODING 8730
SWIDTH 600 0
DWIDTH 10 0
BBX 10 16 0 -2
BITMAP
00C0
0080
0080
0080
0180
0180
0100
1100
7100
B300
3200
1200
1A00
1E00
0E00
0C00
ENDCHAR
STARTCHAR 221E
ENCODING 8734
SWIDTH 600 0
DWIDTH 10 0
BBX 10 5 0 2
BITMAP
7380
4CC0
8C40
4C80
7380
ENDCHAR
STARTCHAR 222B
ENCODING 8747
SWIDTH 600 0
DWIDTH 10 0
BBX 4 17 3 -4
BITMAP
10
60
40
40
40
60
60
60
60
60
60
60
60
20
20
20
C0
ENDCHAR
STARTCHAR 2248
ENCODING 8776
SWIDTH 600 0
DWIDTH 10 0
BBX 10 6 0 1
BITMAP
7840
CF80
0000
3040
FFC0
8300
ENDCHAR
STARTCHAR 2260
ENCODING 8800
SWIDTH 600 0
DWIDTH 10 0
BBX 8 9 1 0
BITMAP
03
02
FF
FF
18
10
FF
60
C0
ENDCHAR
STARTCHAR 2264
ENCODING 8804
SWIDTH 600 0
DWIDTH 10 0
BBX 8 9 1 0
BITMAP
01
0F
7C
C0
E0
3E
07
00
FF
ENDCHAR
STARTCHAR 2265
ENCODING 8805
SWIDTH 600 0
DWIDTH 10 0
BBX 8 9 1 0
BITMAP
80
F0
3E
03
07
7C
E0
00
FF
ENDCHAR
STARTCHAR 25CA
ENCODING 9674
SWIDTH 600 0
DWIDTH 10 0
BBX 8 11 1 0
BITMAP
18
3C
24
66
42
C3
42
66
24
3C
18
ENDCHAR
STARTCHAR 27E8
ENCODING 10216
SWIDTH 600 0
DWIDTH 10 0
BBX 4 11 3 -1
BITMAP
10
20
60
40
80
80
40
40
20
10
10
ENDCHAR
STARTCHAR 27E9
ENCODING 10217
SWIDTH 600 0
DWIDTH 10 0
BBX 4 11 3 -1
BITMAP
80
40
60
20
10
10
30
20
40
80
80
ENDCHAR
STARTCHAR FB01
ENCODING 64257
SWIDTH 600 0
DWIDTH 10 0
BBX 8 12 0 0
BITMAP
3B
33
20
FF
FF
23
23
23
23
23
23
23
ENDCHAR
STARTCHAR FB02
ENCODING 64258
SWIDTH 600 0
DWIDTH 10 0
BBX 8 12 0 0
BITMAP
3B
33
23
FB
FB
23
23
23
23
23
23
23
ENDCHAR
STARTCHAR FEFF
ENCODING 65279
SWIDTH 0 0
DWIDTH 0 0
BBX 0 0 0 0
BITMAP
ENDCHAR
ENDFONT
